<?xml version="1.0" encoding="UTF-8" standalone="no"?>
<!DOCTYPE svg PUBLIC "-//W3C//DTD SVG 1.1//EN"
 "http://www.w3.org/Graphics/SVG/1.1/DTD/svg11.dtd">
<!-- Generated by graphviz version 2.47.3 (20210619.1520)
 -->
<!-- Pages: 1 -->
<svg width="326pt" height="503pt"
 viewBox="0.00 0.00 326.00 503.00" xmlns="http://www.w3.org/2000/svg" xmlns:xlink="http://www.w3.org/1999/xlink">
<g id="graph0" class="graph" transform="scale(1 1) rotate(0) translate(4 499)">
<polygon fill="white" stroke="transparent" points="-4,4 -4,-499 322,-499 322,4 -4,4"/>
<!-- 1980032143168 -->
<g id="node1" class="node">
<title>1980032143168</title>
<polygon fill="#caff70" stroke="black" points="242.5,-31 188.5,-31 188.5,0 242.5,0 242.5,-31"/>
<text text-anchor="middle" x="215.5" y="-7" font-family="monospace" font-size="10.00"> ()</text>
</g>
<!-- 1981256545568 -->
<g id="node2" class="node">
<title>1981256545568</title>
<polygon fill="lightgrey" stroke="black" points="260,-86 171,-86 171,-67 260,-67 260,-86"/>
<text text-anchor="middle" x="215.5" y="-74" font-family="monospace" font-size="10.00">AddBackward0</text>
</g>
<!-- 1981256545568&#45;&gt;1980032143168 -->
<g id="edge14" class="edge">
<title>1981256545568&#45;&gt;1980032143168</title>
<path fill="none" stroke="black" d="M215.5,-66.79C215.5,-60.07 215.5,-50.4 215.5,-41.34"/>
<polygon fill="black" stroke="black" points="219,-41.19 215.5,-31.19 212,-41.19 219,-41.19"/>
</g>
<!-- 1981256545376 -->
<g id="node3" class="node">
<title>1981256545376</title>
<polygon fill="lightgrey" stroke="black" points="225,-141 130,-141 130,-122 225,-122 225,-141"/>
<text text-anchor="middle" x="177.5" y="-129" font-family="monospace" font-size="10.00">MeanBackward0</text>
</g>
<!-- 1981256545376&#45;&gt;1981256545568 -->
<g id="edge1" class="edge">
<title>1981256545376&#45;&gt;1981256545568</title>
<path fill="none" stroke="black" d="M183.77,-121.75C189.09,-114.34 196.86,-103.5 203.38,-94.41"/>
<polygon fill="black" stroke="black" points="206.36,-96.26 209.34,-86.09 200.67,-92.18 206.36,-96.26"/>
</g>
<!-- 1981256545664 -->
<g id="node4" class="node">
<title>1981256545664</title>
<polygon fill="lightgrey" stroke="black" points="205,-196 116,-196 116,-177 205,-177 205,-196"/>
<text text-anchor="middle" x="160.5" y="-184" font-family="monospace" font-size="10.00">PowBackward0</text>
</g>
<!-- 1981256545664&#45;&gt;1981256545376 -->
<g id="edge2" class="edge">
<title>1981256545664&#45;&gt;1981256545376</title>
<path fill="none" stroke="black" d="M163.31,-176.75C165.56,-169.72 168.8,-159.62 171.62,-150.84"/>
<polygon fill="black" stroke="black" points="175.02,-151.68 174.75,-141.09 168.36,-149.54 175.02,-151.68"/>
</g>
<!-- 1980032130352 -->
<g id="node5" class="node">
<title>1980032130352</title>
<polygon fill="lightgrey" stroke="black" points="205,-251 116,-251 116,-232 205,-232 205,-251"/>
<text text-anchor="middle" x="160.5" y="-239" font-family="monospace" font-size="10.00">SubBackward0</text>
</g>
<!-- 1980032130352&#45;&gt;1981256545664 -->
<g id="edge3" class="edge">
<title>1980032130352&#45;&gt;1981256545664</title>
<path fill="none" stroke="black" d="M160.5,-231.75C160.5,-224.8 160.5,-214.85 160.5,-206.13"/>
<polygon fill="black" stroke="black" points="164,-206.09 160.5,-196.09 157,-206.09 164,-206.09"/>
</g>
<!-- 1980032130448 -->
<g id="node6" class="node">
<title>1980032130448</title>
<polygon fill="lightgrey" stroke="black" points="205,-306 116,-306 116,-287 205,-287 205,-306"/>
<text text-anchor="middle" x="160.5" y="-294" font-family="monospace" font-size="10.00">AddBackward0</text>
</g>
<!-- 1980032130448&#45;&gt;1980032130352 -->
<g id="edge4" class="edge">
<title>1980032130448&#45;&gt;1980032130352</title>
<path fill="none" stroke="black" d="M160.5,-286.75C160.5,-279.8 160.5,-269.85 160.5,-261.13"/>
<polygon fill="black" stroke="black" points="164,-261.09 160.5,-251.09 157,-261.09 164,-261.09"/>
</g>
<!-- 1980032129008 -->
<g id="node7" class="node">
<title>1980032129008</title>
<polygon fill="lightgrey" stroke="black" points="101,-361 0,-361 0,-342 101,-342 101,-361"/>
<text text-anchor="middle" x="50.5" y="-349" font-family="monospace" font-size="10.00">AccumulateGrad</text>
</g>
<!-- 1980032129008&#45;&gt;1980032130448 -->
<g id="edge5" class="edge">
<title>1980032129008&#45;&gt;1980032130448</title>
<path fill="none" stroke="black" d="M68.17,-341.98C85.79,-333.5 113.08,-320.35 133.43,-310.54"/>
<polygon fill="black" stroke="black" points="135.02,-313.66 142.51,-306.17 131.98,-307.36 135.02,-313.66"/>
</g>
<!-- 1981159852992 -->
<g id="node8" class="node">
<title>1981159852992</title>
<polygon fill="lightblue" stroke="black" points="77.5,-428 23.5,-428 23.5,-397 77.5,-397 77.5,-428"/>
<text text-anchor="middle" x="50.5" y="-404" font-family="monospace" font-size="10.00"> (1)</text>
</g>
<!-- 1981159852992&#45;&gt;1980032129008 -->
<g id="edge6" class="edge">
<title>1981159852992&#45;&gt;1980032129008</title>
<path fill="none" stroke="black" d="M50.5,-396.92C50.5,-389.22 50.5,-379.69 50.5,-371.43"/>
<polygon fill="black" stroke="black" points="54,-371.25 50.5,-361.25 47,-371.25 54,-371.25"/>
</g>
<!-- 1980032130496 -->
<g id="node9" class="node">
<title>1980032130496</title>
<polygon fill="lightgrey" stroke="black" points="208,-361 119,-361 119,-342 208,-342 208,-361"/>
<text text-anchor="middle" x="163.5" y="-349" font-family="monospace" font-size="10.00">MulBackward0</text>
</g>
<!-- 1980032130496&#45;&gt;1980032130448 -->
<g id="edge7" class="edge">
<title>1980032130496&#45;&gt;1980032130448</title>
<path fill="none" stroke="black" d="M163,-341.75C162.61,-334.8 162.05,-324.85 161.55,-316.13"/>
<polygon fill="black" stroke="black" points="165.05,-315.88 160.99,-306.09 158.06,-316.27 165.05,-315.88"/>
</g>
<!-- 1980032130592 -->
<g id="node10" class="node">
<title>1980032130592</title>
<polygon fill="lightgrey" stroke="black" points="267,-422 166,-422 166,-403 267,-403 267,-422"/>
<text text-anchor="middle" x="216.5" y="-410" font-family="monospace" font-size="10.00">AccumulateGrad</text>
</g>
<!-- 1980032130592&#45;&gt;1980032130496 -->
<g id="edge8" class="edge">
<title>1980032130592&#45;&gt;1980032130496</title>
<path fill="none" stroke="black" d="M208.68,-402.79C200.69,-393.91 188.11,-379.89 178.24,-368.91"/>
<polygon fill="black" stroke="black" points="180.64,-366.34 171.35,-361.24 175.43,-371.02 180.64,-366.34"/>
</g>
<!-- 1980032129968 -->
<g id="node14" class="node">
<title>1980032129968</title>
<polygon fill="lightgrey" stroke="black" points="315,-361 226,-361 226,-342 315,-342 315,-361"/>
<text text-anchor="middle" x="270.5" y="-349" font-family="monospace" font-size="10.00">MulBackward0</text>
</g>
<!-- 1980032130592&#45;&gt;1980032129968 -->
<g id="edge13" class="edge">
<title>1980032130592&#45;&gt;1980032129968</title>
<path fill="none" stroke="black" d="M224.47,-402.79C232.6,-393.91 245.43,-379.89 255.48,-368.91"/>
<polygon fill="black" stroke="black" points="258.33,-370.98 262.5,-361.24 253.17,-366.26 258.33,-370.98"/>
</g>
<!-- 1981256556992 -->
<g id="node11" class="node">
<title>1981256556992</title>
<polygon fill="lightblue" stroke="black" points="243.5,-495 189.5,-495 189.5,-464 243.5,-464 243.5,-495"/>
<text text-anchor="middle" x="216.5" y="-471" font-family="monospace" font-size="10.00"> (1)</text>
</g>
<!-- 1981256556992&#45;&gt;1980032130592 -->
<g id="edge9" class="edge">
<title>1981256556992&#45;&gt;1980032130592</title>
<path fill="none" stroke="black" d="M216.5,-463.75C216.5,-454.39 216.5,-442.19 216.5,-432.16"/>
<polygon fill="black" stroke="black" points="220,-432.02 216.5,-422.02 213,-432.02 220,-432.02"/>
</g>
<!-- 1981256546480 -->
<g id="node12" class="node">
<title>1981256546480</title>
<polygon fill="lightgrey" stroke="black" points="318,-196 223,-196 223,-177 318,-177 318,-196"/>
<text text-anchor="middle" x="270.5" y="-184" font-family="monospace" font-size="10.00">MeanBackward0</text>
</g>
<!-- 1981256546480&#45;&gt;1981256545568 -->
<g id="edge10" class="edge">
<title>1981256546480&#45;&gt;1981256545568</title>
<path fill="none" stroke="black" d="M266,-176.66C256.97,-158.93 236.5,-118.73 224.57,-95.32"/>
<polygon fill="black" stroke="black" points="227.57,-93.48 219.91,-86.16 221.33,-96.66 227.57,-93.48"/>
</g>
<!-- 1981256546096 -->
<g id="node13" class="node">
<title>1981256546096</title>
<polygon fill="lightgrey" stroke="black" points="315,-306 226,-306 226,-287 315,-287 315,-306"/>
<text text-anchor="middle" x="270.5" y="-294" font-family="monospace" font-size="10.00">SubBackward0</text>
</g>
<!-- 1981256546096&#45;&gt;1981256546480 -->
<g id="edge11" class="edge">
<title>1981256546096&#45;&gt;1981256546480</title>
<path fill="none" stroke="black" d="M270.5,-286.66C270.5,-269.17 270.5,-229.8 270.5,-206.27"/>
<polygon fill="black" stroke="black" points="274,-206.16 270.5,-196.16 267,-206.16 274,-206.16"/>
</g>
<!-- 1980032129968&#45;&gt;1981256546096 -->
<g id="edge12" class="edge">
<title>1980032129968&#45;&gt;1981256546096</title>
<path fill="none" stroke="black" d="M270.5,-341.75C270.5,-334.8 270.5,-324.85 270.5,-316.13"/>
<polygon fill="black" stroke="black" points="274,-316.09 270.5,-306.09 267,-316.09 274,-316.09"/>
</g>
</g>
</svg>
