<?xml version="1.0" encoding="UTF-8" standalone="no"?>
<!DOCTYPE svg PUBLIC "-//W3C//DTD SVG 1.1//EN"
 "http://www.w3.org/Graphics/SVG/1.1/DTD/svg11.dtd">
<!-- Generated by graphviz version 2.47.3 (20210619.1520)
 -->
<!-- Pages: 1 -->
<svg width="222pt" height="283pt"
 viewBox="0.00 0.00 222.00 283.00" xmlns="http://www.w3.org/2000/svg" xmlns:xlink="http://www.w3.org/1999/xlink">
<g id="graph0" class="graph" transform="scale(1 1) rotate(0) translate(4 279)">
<polygon fill="white" stroke="transparent" points="-4,4 -4,-279 218,-279 218,4 -4,4"/>
<!-- 2187892097280 -->
<g id="node1" class="node">
<title>2187892097280</title>
<polygon fill="#caff70" stroke="black" points="139,-31 74,-31 74,0 139,0 139,-31"/>
<text text-anchor="middle" x="106.5" y="-7" font-family="monospace" font-size="10.00"> (80, 1)</text>
</g>
<!-- 2187791005728 -->
<g id="node2" class="node">
<title>2187791005728</title>
<polygon fill="lightgrey" stroke="black" points="151,-86 62,-86 62,-67 151,-67 151,-86"/>
<text text-anchor="middle" x="106.5" y="-74" font-family="monospace" font-size="10.00">AddBackward0</text>
</g>
<!-- 2187791005728&#45;&gt;2187892097280 -->
<g id="edge6" class="edge">
<title>2187791005728&#45;&gt;2187892097280</title>
<path fill="none" stroke="black" d="M106.5,-66.79C106.5,-60.07 106.5,-50.4 106.5,-41.34"/>
<polygon fill="black" stroke="black" points="110,-41.19 106.5,-31.19 103,-41.19 110,-41.19"/>
</g>
<!-- 2187898570592 -->
<g id="node3" class="node">
<title>2187898570592</title>
<polygon fill="lightgrey" stroke="black" points="101,-141 0,-141 0,-122 101,-122 101,-141"/>
<text text-anchor="middle" x="50.5" y="-129" font-family="monospace" font-size="10.00">AccumulateGrad</text>
</g>
<!-- 2187898570592&#45;&gt;2187791005728 -->
<g id="edge1" class="edge">
<title>2187898570592&#45;&gt;2187791005728</title>
<path fill="none" stroke="black" d="M59.5,-121.98C67.69,-114.23 80.01,-102.58 89.97,-93.14"/>
<polygon fill="black" stroke="black" points="92.48,-95.59 97.34,-86.17 87.67,-90.5 92.48,-95.59"/>
</g>
<!-- 2187898896960 -->
<g id="node4" class="node">
<title>2187898896960</title>
<polygon fill="lightblue" stroke="black" points="77.5,-208 23.5,-208 23.5,-177 77.5,-177 77.5,-208"/>
<text text-anchor="middle" x="50.5" y="-184" font-family="monospace" font-size="10.00"> (1)</text>
</g>
<!-- 2187898896960&#45;&gt;2187898570592 -->
<g id="edge2" class="edge">
<title>2187898896960&#45;&gt;2187898570592</title>
<path fill="none" stroke="black" d="M50.5,-176.92C50.5,-169.22 50.5,-159.69 50.5,-151.43"/>
<polygon fill="black" stroke="black" points="54,-151.25 50.5,-141.25 47,-151.25 54,-151.25"/>
</g>
<!-- 2187789857360 -->
<g id="node5" class="node">
<title>2187789857360</title>
<polygon fill="lightgrey" stroke="black" points="208,-141 119,-141 119,-122 208,-122 208,-141"/>
<text text-anchor="middle" x="163.5" y="-129" font-family="monospace" font-size="10.00">MulBackward0</text>
</g>
<!-- 2187789857360&#45;&gt;2187791005728 -->
<g id="edge3" class="edge">
<title>2187789857360&#45;&gt;2187791005728</title>
<path fill="none" stroke="black" d="M154.34,-121.98C146,-114.23 133.47,-102.58 123.32,-93.14"/>
<polygon fill="black" stroke="black" points="125.53,-90.42 115.82,-86.17 120.76,-95.54 125.53,-90.42"/>
</g>
<!-- 2187789857648 -->
<g id="node6" class="node">
<title>2187789857648</title>
<polygon fill="lightgrey" stroke="black" points="214,-202 113,-202 113,-183 214,-183 214,-202"/>
<text text-anchor="middle" x="163.5" y="-190" font-family="monospace" font-size="10.00">AccumulateGrad</text>
</g>
<!-- 2187789857648&#45;&gt;2187789857360 -->
<g id="edge4" class="edge">
<title>2187789857648&#45;&gt;2187789857360</title>
<path fill="none" stroke="black" d="M163.5,-182.79C163.5,-174.6 163.5,-162.06 163.5,-151.55"/>
<polygon fill="black" stroke="black" points="167,-151.24 163.5,-141.24 160,-151.24 167,-151.24"/>
</g>
<!-- 2187898896512 -->
<g id="node7" class="node">
<title>2187898896512</title>
<polygon fill="lightblue" stroke="black" points="190.5,-275 136.5,-275 136.5,-244 190.5,-244 190.5,-275"/>
<text text-anchor="middle" x="163.5" y="-251" font-family="monospace" font-size="10.00"> (1)</text>
</g>
<!-- 2187898896512&#45;&gt;2187789857648 -->
<g id="edge5" class="edge">
<title>2187898896512&#45;&gt;2187789857648</title>
<path fill="none" stroke="black" d="M163.5,-243.75C163.5,-234.39 163.5,-222.19 163.5,-212.16"/>
<polygon fill="black" stroke="black" points="167,-212.02 163.5,-202.02 160,-212.02 167,-212.02"/>
</g>
</g>
</svg>
