<?xml version="1.0" encoding="utf-8" standalone="no"?>
<!DOCTYPE svg PUBLIC "-//W3C//DTD SVG 1.1//EN"
  "http://www.w3.org/Graphics/SVG/1.1/DTD/svg11.dtd">
<svg height="423.274375pt" version="1.1" viewBox="0 0 855.567481 423.274375" width="855.567481pt" xmlns="http://www.w3.org/2000/svg" xmlns:xlink="http://www.w3.org/1999/xlink">
 <metadata>
  <rdf:RDF xmlns:cc="http://creativecommons.org/ns#" xmlns:dc="http://purl.org/dc/elements/1.1/" xmlns:rdf="http://www.w3.org/1999/02/22-rdf-syntax-ns#">
   <cc:Work>
    <dc:type rdf:resource="http://purl.org/dc/dcmitype/StillImage"/>
    <dc:date>2021-08-18T23:45:25.759748</dc:date>
    <dc:format>image/svg+xml</dc:format>
    <dc:creator>
     <cc:Agent>
      <dc:title>Matplotlib v3.4.2, https://matplotlib.org/</dc:title>
     </cc:Agent>
    </dc:creator>
   </cc:Work>
  </rdf:RDF>
 </metadata>
 <defs>
  <style type="text/css">*{stroke-linecap:butt;stroke-linejoin:round;}</style>
 </defs>
 <g id="figure_1">
  <g id="patch_1">
   <path d="M 0 423.274375 
L 855.567481 423.274375 
L 855.567481 0 
L 0 0 
z
" style="fill:none;"/>
  </g>
  <g id="axes_1">
   <g id="patch_2">
    <path d="M 43.78125 385.718125 
L 420.357092 385.718125 
L 420.357092 22.318125 
L 43.78125 22.318125 
z
" style="fill:#ffffff;"/>
   </g>
   <g id="PathCollection_1">
    <defs>
     <path d="M 0 3 
C 0.795609 3 1.55874 2.683901 2.12132 2.12132 
C 2.683901 1.55874 3 0.795609 3 0 
C 3 -0.795609 2.683901 -1.55874 2.12132 -2.12132 
C 1.55874 -2.683901 0.795609 -3 0 -3 
C -0.795609 -3 -1.55874 -2.683901 -2.12132 -2.12132 
C -2.683901 -1.55874 -3 -0.795609 -3 0 
C -3 0.795609 -2.683901 1.55874 -2.12132 2.12132 
C -1.55874 2.683901 -0.795609 3 0 3 
z
" id="m9f61063149" style="stroke:#1f77b4;"/>
    </defs>
    <g clip-path="url(#p5fb7cb8b8d)">
     <use style="fill:#1f77b4;stroke:#1f77b4;" x="328.023796" xlink:href="#m9f61063149" y="95.638386"/>
     <use style="fill:#1f77b4;stroke:#1f77b4;" x="81.143834" xlink:href="#m9f61063149" y="245.894458"/>
     <use style="fill:#1f77b4;stroke:#1f77b4;" x="360.05907" xlink:href="#m9f61063149" y="44.264636"/>
     <use style="fill:#1f77b4;stroke:#1f77b4;" x="67.839255" xlink:href="#m9f61063149" y="259.289233"/>
     <use style="fill:#1f77b4;stroke:#1f77b4;" x="314.32252" xlink:href="#m9f61063149" y="95.799485"/>
     <use style="fill:#1f77b4;stroke:#1f77b4;" x="84.8019" xlink:href="#m9f61063149" y="248.409818"/>
     <use style="fill:#1f77b4;stroke:#1f77b4;" x="128.292444" xlink:href="#m9f61063149" y="237.382266"/>
     <use style="fill:#1f77b4;stroke:#1f77b4;" x="167.45581" xlink:href="#m9f61063149" y="207.007796"/>
     <use style="fill:#1f77b4;stroke:#1f77b4;" x="223.70058" xlink:href="#m9f61063149" y="152.94191"/>
     <use style="fill:#1f77b4;stroke:#1f77b4;" x="397.204229" xlink:href="#m9f61063149" y="52.783281"/>
     <use style="fill:#1f77b4;stroke:#1f77b4;" x="101.544098" xlink:href="#m9f61063149" y="240.287169"/>
     <use style="fill:#1f77b4;stroke:#1f77b4;" x="329.371192" xlink:href="#m9f61063149" y="93.399649"/>
     <use style="fill:#1f77b4;stroke:#1f77b4;" x="338.812318" xlink:href="#m9f61063149" y="78.251557"/>
     <use style="fill:#1f77b4;stroke:#1f77b4;" x="313.489567" xlink:href="#m9f61063149" y="83.853243"/>
     <use style="fill:#1f77b4;stroke:#1f77b4;" x="93.044161" xlink:href="#m9f61063149" y="216.71738"/>
     <use style="fill:#1f77b4;stroke:#1f77b4;" x="123.45706" xlink:href="#m9f61063149" y="199.475101"/>
     <use style="fill:#1f77b4;stroke:#1f77b4;" x="113.397905" xlink:href="#m9f61063149" y="234.488618"/>
     <use style="fill:#1f77b4;stroke:#1f77b4;" x="66.15273" xlink:href="#m9f61063149" y="252.935376"/>
     <use style="fill:#1f77b4;stroke:#1f77b4;" x="403.240008" xlink:href="#m9f61063149" y="27.950103"/>
     <use style="fill:#1f77b4;stroke:#1f77b4;" x="276.40481" xlink:href="#m9f61063149" y="116.804523"/>
     <use style="fill:#1f77b4;stroke:#1f77b4;" x="305.977734" xlink:href="#m9f61063149" y="108.365448"/>
     <use style="fill:#1f77b4;stroke:#1f77b4;" x="267.544858" xlink:href="#m9f61063149" y="146.491481"/>
     <use style="fill:#1f77b4;stroke:#1f77b4;" x="380.560821" xlink:href="#m9f61063149" y="51.553682"/>
     <use style="fill:#1f77b4;stroke:#1f77b4;" x="281.379074" xlink:href="#m9f61063149" y="128.636456"/>
     <use style="fill:#1f77b4;stroke:#1f77b4;" x="156.973858" xlink:href="#m9f61063149" y="199.960352"/>
     <use style="fill:#1f77b4;stroke:#1f77b4;" x="149.245419" xlink:href="#m9f61063149" y="198.547999"/>
     <use style="fill:#1f77b4;stroke:#1f77b4;" x="100.691531" xlink:href="#m9f61063149" y="230.816588"/>
     <use style="fill:#1f77b4;stroke:#1f77b4;" x="313.280607" xlink:href="#m9f61063149" y="93.514145"/>
     <use style="fill:#1f77b4;stroke:#1f77b4;" x="389.983509" xlink:href="#m9f61063149" y="46.897272"/>
     <use style="fill:#1f77b4;stroke:#1f77b4;" x="270.909399" xlink:href="#m9f61063149" y="103.941482"/>
     <use style="fill:#1f77b4;stroke:#1f77b4;" x="254.769279" xlink:href="#m9f61063149" y="145.735707"/>
     <use style="fill:#1f77b4;stroke:#1f77b4;" x="231.228834" xlink:href="#m9f61063149" y="162.284546"/>
     <use style="fill:#1f77b4;stroke:#1f77b4;" x="122.400246" xlink:href="#m9f61063149" y="224.725162"/>
     <use style="fill:#1f77b4;stroke:#1f77b4;" x="153.630037" xlink:href="#m9f61063149" y="208.649492"/>
     <use style="fill:#1f77b4;stroke:#1f77b4;" x="397.317681" xlink:href="#m9f61063149" y="37.241578"/>
     <use style="fill:#1f77b4;stroke:#1f77b4;" x="133.044873" xlink:href="#m9f61063149" y="212.692253"/>
     <use style="fill:#1f77b4;stroke:#1f77b4;" x="122.951257" xlink:href="#m9f61063149" y="214.137816"/>
     <use style="fill:#1f77b4;stroke:#1f77b4;" x="361.130965" xlink:href="#m9f61063149" y="71.491389"/>
     <use style="fill:#1f77b4;stroke:#1f77b4;" x="189.627465" xlink:href="#m9f61063149" y="179.660367"/>
     <use style="fill:#1f77b4;stroke:#1f77b4;" x="160.565062" xlink:href="#m9f61063149" y="217.369349"/>
     <use style="fill:#1f77b4;stroke:#1f77b4;" x="340.975269" xlink:href="#m9f61063149" y="79.273067"/>
     <use style="fill:#1f77b4;stroke:#1f77b4;" x="79.234013" xlink:href="#m9f61063149" y="237.54979"/>
     <use style="fill:#1f77b4;stroke:#1f77b4;" x="349.363287" xlink:href="#m9f61063149" y="79.534955"/>
     <use style="fill:#1f77b4;stroke:#1f77b4;" x="248.287398" xlink:href="#m9f61063149" y="125.93326"/>
     <use style="fill:#1f77b4;stroke:#1f77b4;" x="328.363716" xlink:href="#m9f61063149" y="101.938541"/>
     <use style="fill:#1f77b4;stroke:#1f77b4;" x="368.469422" xlink:href="#m9f61063149" y="49.190606"/>
     <use style="fill:#1f77b4;stroke:#1f77b4;" x="89.841923" xlink:href="#m9f61063149" y="260.19805"/>
     <use style="fill:#1f77b4;stroke:#1f77b4;" x="74.749182" xlink:href="#m9f61063149" y="268.666732"/>
     <use style="fill:#1f77b4;stroke:#1f77b4;" x="265.631315" xlink:href="#m9f61063149" y="131.490452"/>
     <use style="fill:#1f77b4;stroke:#1f77b4;" x="297.661487" xlink:href="#m9f61063149" y="110.327749"/>
     <use style="fill:#1f77b4;stroke:#1f77b4;" x="307.78202" xlink:href="#m9f61063149" y="79.035619"/>
     <use style="fill:#1f77b4;stroke:#1f77b4;" x="70.96816" xlink:href="#m9f61063149" y="247.033042"/>
     <use style="fill:#1f77b4;stroke:#1f77b4;" x="268.666398" xlink:href="#m9f61063149" y="137.037566"/>
     <use style="fill:#1f77b4;stroke:#1f77b4;" x="343.43952" xlink:href="#m9f61063149" y="73.824645"/>
     <use style="fill:#1f77b4;stroke:#1f77b4;" x="212.515844" xlink:href="#m9f61063149" y="161.762943"/>
     <use style="fill:#1f77b4;stroke:#1f77b4;" x="172.409721" xlink:href="#m9f61063149" y="183.025901"/>
     <use style="fill:#1f77b4;stroke:#1f77b4;" x="332.874665" xlink:href="#m9f61063149" y="89.337597"/>
     <use style="fill:#1f77b4;stroke:#1f77b4;" x="324.36608" xlink:href="#m9f61063149" y="93.001619"/>
     <use style="fill:#1f77b4;stroke:#1f77b4;" x="231.710695" xlink:href="#m9f61063149" y="166.097216"/>
     <use style="fill:#1f77b4;stroke:#1f77b4;" x="128.62667" xlink:href="#m9f61063149" y="225.695977"/>
     <use style="fill:#1f77b4;stroke:#1f77b4;" x="390.621461" xlink:href="#m9f61063149" y="49.100954"/>
     <use style="fill:#1f77b4;stroke:#1f77b4;" x="160.88443" xlink:href="#m9f61063149" y="199.938592"/>
     <use style="fill:#1f77b4;stroke:#1f77b4;" x="107.63336" xlink:href="#m9f61063149" y="232.727516"/>
     <use style="fill:#1f77b4;stroke:#1f77b4;" x="167.71003" xlink:href="#m9f61063149" y="178.966785"/>
     <use style="fill:#1f77b4;stroke:#1f77b4;" x="305.553809" xlink:href="#m9f61063149" y="99.832052"/>
     <use style="fill:#1f77b4;stroke:#1f77b4;" x="99.392028" xlink:href="#m9f61063149" y="249.700673"/>
     <use style="fill:#1f77b4;stroke:#1f77b4;" x="184.020036" xlink:href="#m9f61063149" y="181.013885"/>
     <use style="fill:#1f77b4;stroke:#1f77b4;" x="60.898334" xlink:href="#m9f61063149" y="261.079147"/>
     <use style="fill:#1f77b4;stroke:#1f77b4;" x="127.33912" xlink:href="#m9f61063149" y="216.992095"/>
     <use style="fill:#1f77b4;stroke:#1f77b4;" x="371.12572" xlink:href="#m9f61063149" y="64.600637"/>
     <use style="fill:#1f77b4;stroke:#1f77b4;" x="218.06854" xlink:href="#m9f61063149" y="178.157773"/>
     <use style="fill:#1f77b4;stroke:#1f77b4;" x="242.029287" xlink:href="#m9f61063149" y="149.303373"/>
     <use style="fill:#1f77b4;stroke:#1f77b4;" x="108.132332" xlink:href="#m9f61063149" y="254.296259"/>
     <use style="fill:#1f77b4;stroke:#1f77b4;" x="81.66474" xlink:href="#m9f61063149" y="250.221712"/>
     <use style="fill:#1f77b4;stroke:#1f77b4;" x="118.458032" xlink:href="#m9f61063149" y="226.46616"/>
     <use style="fill:#1f77b4;stroke:#1f77b4;" x="348.07078" xlink:href="#m9f61063149" y="64.656952"/>
     <use style="fill:#1f77b4;stroke:#1f77b4;" x="172.461004" xlink:href="#m9f61063149" y="174.048867"/>
     <use style="fill:#1f77b4;stroke:#1f77b4;" x="386.709066" xlink:href="#m9f61063149" y="47.057105"/>
     <use style="fill:#1f77b4;stroke:#1f77b4;" x="174.403252" xlink:href="#m9f61063149" y="204.877894"/>
     <use style="fill:#1f77b4;stroke:#1f77b4;" x="186.774536" xlink:href="#m9f61063149" y="185.34816"/>
    </g>
   </g>
   <g id="matplotlib.axis_1">
    <g id="xtick_1">
     <g id="line2d_1">
      <defs>
       <path d="M 0 0 
L 0 3.5 
" id="m81ed89b15d" style="stroke:#000000;stroke-width:0.8;"/>
      </defs>
      <g>
       <use style="stroke:#000000;stroke-width:0.8;" x="58.971985" xlink:href="#m81ed89b15d" y="385.718125"/>
      </g>
     </g>
     <g id="text_1">
      <!-- 0.0 -->
      <g transform="translate(51.020423 400.316562)scale(0.1 -0.1)">
       <defs>
        <path d="M 2034 4250 
Q 1547 4250 1301 3770 
Q 1056 3291 1056 2328 
Q 1056 1369 1301 889 
Q 1547 409 2034 409 
Q 2525 409 2770 889 
Q 3016 1369 3016 2328 
Q 3016 3291 2770 3770 
Q 2525 4250 2034 4250 
z
M 2034 4750 
Q 2819 4750 3233 4129 
Q 3647 3509 3647 2328 
Q 3647 1150 3233 529 
Q 2819 -91 2034 -91 
Q 1250 -91 836 529 
Q 422 1150 422 2328 
Q 422 3509 836 4129 
Q 1250 4750 2034 4750 
z
" id="DejaVuSans-30" transform="scale(0.015625)"/>
        <path d="M 684 794 
L 1344 794 
L 1344 0 
L 684 0 
L 684 794 
z
" id="DejaVuSans-2e" transform="scale(0.015625)"/>
       </defs>
       <use xlink:href="#DejaVuSans-30"/>
       <use x="63.623047" xlink:href="#DejaVuSans-2e"/>
       <use x="95.410156" xlink:href="#DejaVuSans-30"/>
      </g>
     </g>
    </g>
    <g id="xtick_2">
     <g id="line2d_2">
      <g>
       <use style="stroke:#000000;stroke-width:0.8;" x="128.740468" xlink:href="#m81ed89b15d" y="385.718125"/>
      </g>
     </g>
     <g id="text_2">
      <!-- 0.2 -->
      <g transform="translate(120.788906 400.316562)scale(0.1 -0.1)">
       <defs>
        <path d="M 1228 531 
L 3431 531 
L 3431 0 
L 469 0 
L 469 531 
Q 828 903 1448 1529 
Q 2069 2156 2228 2338 
Q 2531 2678 2651 2914 
Q 2772 3150 2772 3378 
Q 2772 3750 2511 3984 
Q 2250 4219 1831 4219 
Q 1534 4219 1204 4116 
Q 875 4013 500 3803 
L 500 4441 
Q 881 4594 1212 4672 
Q 1544 4750 1819 4750 
Q 2544 4750 2975 4387 
Q 3406 4025 3406 3419 
Q 3406 3131 3298 2873 
Q 3191 2616 2906 2266 
Q 2828 2175 2409 1742 
Q 1991 1309 1228 531 
z
" id="DejaVuSans-32" transform="scale(0.015625)"/>
       </defs>
       <use xlink:href="#DejaVuSans-30"/>
       <use x="63.623047" xlink:href="#DejaVuSans-2e"/>
       <use x="95.410156" xlink:href="#DejaVuSans-32"/>
      </g>
     </g>
    </g>
    <g id="xtick_3">
     <g id="line2d_3">
      <g>
       <use style="stroke:#000000;stroke-width:0.8;" x="198.508952" xlink:href="#m81ed89b15d" y="385.718125"/>
      </g>
     </g>
     <g id="text_3">
      <!-- 0.4 -->
      <g transform="translate(190.557389 400.316562)scale(0.1 -0.1)">
       <defs>
        <path d="M 2419 4116 
L 825 1625 
L 2419 1625 
L 2419 4116 
z
M 2253 4666 
L 3047 4666 
L 3047 1625 
L 3713 1625 
L 3713 1100 
L 3047 1100 
L 3047 0 
L 2419 0 
L 2419 1100 
L 313 1100 
L 313 1709 
L 2253 4666 
z
" id="DejaVuSans-34" transform="scale(0.015625)"/>
       </defs>
       <use xlink:href="#DejaVuSans-30"/>
       <use x="63.623047" xlink:href="#DejaVuSans-2e"/>
       <use x="95.410156" xlink:href="#DejaVuSans-34"/>
      </g>
     </g>
    </g>
    <g id="xtick_4">
     <g id="line2d_4">
      <g>
       <use style="stroke:#000000;stroke-width:0.8;" x="268.277435" xlink:href="#m81ed89b15d" y="385.718125"/>
      </g>
     </g>
     <g id="text_4">
      <!-- 0.6 -->
      <g transform="translate(260.325872 400.316562)scale(0.1 -0.1)">
       <defs>
        <path d="M 2113 2584 
Q 1688 2584 1439 2293 
Q 1191 2003 1191 1497 
Q 1191 994 1439 701 
Q 1688 409 2113 409 
Q 2538 409 2786 701 
Q 3034 994 3034 1497 
Q 3034 2003 2786 2293 
Q 2538 2584 2113 2584 
z
M 3366 4563 
L 3366 3988 
Q 3128 4100 2886 4159 
Q 2644 4219 2406 4219 
Q 1781 4219 1451 3797 
Q 1122 3375 1075 2522 
Q 1259 2794 1537 2939 
Q 1816 3084 2150 3084 
Q 2853 3084 3261 2657 
Q 3669 2231 3669 1497 
Q 3669 778 3244 343 
Q 2819 -91 2113 -91 
Q 1303 -91 875 529 
Q 447 1150 447 2328 
Q 447 3434 972 4092 
Q 1497 4750 2381 4750 
Q 2619 4750 2861 4703 
Q 3103 4656 3366 4563 
z
" id="DejaVuSans-36" transform="scale(0.015625)"/>
       </defs>
       <use xlink:href="#DejaVuSans-30"/>
       <use x="63.623047" xlink:href="#DejaVuSans-2e"/>
       <use x="95.410156" xlink:href="#DejaVuSans-36"/>
      </g>
     </g>
    </g>
    <g id="xtick_5">
     <g id="line2d_5">
      <g>
       <use style="stroke:#000000;stroke-width:0.8;" x="338.045918" xlink:href="#m81ed89b15d" y="385.718125"/>
      </g>
     </g>
     <g id="text_5">
      <!-- 0.8 -->
      <g transform="translate(330.094355 400.316562)scale(0.1 -0.1)">
       <defs>
        <path d="M 2034 2216 
Q 1584 2216 1326 1975 
Q 1069 1734 1069 1313 
Q 1069 891 1326 650 
Q 1584 409 2034 409 
Q 2484 409 2743 651 
Q 3003 894 3003 1313 
Q 3003 1734 2745 1975 
Q 2488 2216 2034 2216 
z
M 1403 2484 
Q 997 2584 770 2862 
Q 544 3141 544 3541 
Q 544 4100 942 4425 
Q 1341 4750 2034 4750 
Q 2731 4750 3128 4425 
Q 3525 4100 3525 3541 
Q 3525 3141 3298 2862 
Q 3072 2584 2669 2484 
Q 3125 2378 3379 2068 
Q 3634 1759 3634 1313 
Q 3634 634 3220 271 
Q 2806 -91 2034 -91 
Q 1263 -91 848 271 
Q 434 634 434 1313 
Q 434 1759 690 2068 
Q 947 2378 1403 2484 
z
M 1172 3481 
Q 1172 3119 1398 2916 
Q 1625 2713 2034 2713 
Q 2441 2713 2670 2916 
Q 2900 3119 2900 3481 
Q 2900 3844 2670 4047 
Q 2441 4250 2034 4250 
Q 1625 4250 1398 4047 
Q 1172 3844 1172 3481 
z
" id="DejaVuSans-38" transform="scale(0.015625)"/>
       </defs>
       <use xlink:href="#DejaVuSans-30"/>
       <use x="63.623047" xlink:href="#DejaVuSans-2e"/>
       <use x="95.410156" xlink:href="#DejaVuSans-38"/>
      </g>
     </g>
    </g>
    <g id="xtick_6">
     <g id="line2d_6">
      <g>
       <use style="stroke:#000000;stroke-width:0.8;" x="407.814401" xlink:href="#m81ed89b15d" y="385.718125"/>
      </g>
     </g>
     <g id="text_6">
      <!-- 1.0 -->
      <g transform="translate(399.862839 400.316562)scale(0.1 -0.1)">
       <defs>
        <path d="M 794 531 
L 1825 531 
L 1825 4091 
L 703 3866 
L 703 4441 
L 1819 4666 
L 2450 4666 
L 2450 531 
L 3481 531 
L 3481 0 
L 794 0 
L 794 531 
z
" id="DejaVuSans-31" transform="scale(0.015625)"/>
       </defs>
       <use xlink:href="#DejaVuSans-31"/>
       <use x="63.623047" xlink:href="#DejaVuSans-2e"/>
       <use x="95.410156" xlink:href="#DejaVuSans-30"/>
      </g>
     </g>
    </g>
    <g id="text_7">
     <!-- x -->
     <g transform="translate(229.109796 413.994687)scale(0.1 -0.1)">
      <defs>
       <path d="M 3513 3500 
L 2247 1797 
L 3578 0 
L 2900 0 
L 1881 1375 
L 863 0 
L 184 0 
L 1544 1831 
L 300 3500 
L 978 3500 
L 1906 2253 
L 2834 3500 
L 3513 3500 
z
" id="DejaVuSans-78" transform="scale(0.015625)"/>
      </defs>
      <use xlink:href="#DejaVuSans-78"/>
     </g>
    </g>
   </g>
   <g id="matplotlib.axis_2">
    <g id="ytick_1">
     <g id="line2d_7">
      <defs>
       <path d="M 0 0 
L -3.5 0 
" id="m52eebfb77f" style="stroke:#000000;stroke-width:0.8;"/>
      </defs>
      <g>
       <use style="stroke:#000000;stroke-width:0.8;" x="43.78125" xlink:href="#m52eebfb77f" y="385.718125"/>
      </g>
     </g>
     <g id="text_8">
      <!-- 0.0 -->
      <g transform="translate(20.878125 389.517344)scale(0.1 -0.1)">
       <use xlink:href="#DejaVuSans-30"/>
       <use x="63.623047" xlink:href="#DejaVuSans-2e"/>
       <use x="95.410156" xlink:href="#DejaVuSans-30"/>
      </g>
     </g>
    </g>
    <g id="ytick_2">
     <g id="line2d_8">
      <g>
       <use style="stroke:#000000;stroke-width:0.8;" x="43.78125" xlink:href="#m52eebfb77f" y="327.105222"/>
      </g>
     </g>
     <g id="text_9">
      <!-- 0.5 -->
      <g transform="translate(20.878125 330.904441)scale(0.1 -0.1)">
       <defs>
        <path d="M 691 4666 
L 3169 4666 
L 3169 4134 
L 1269 4134 
L 1269 2991 
Q 1406 3038 1543 3061 
Q 1681 3084 1819 3084 
Q 2600 3084 3056 2656 
Q 3513 2228 3513 1497 
Q 3513 744 3044 326 
Q 2575 -91 1722 -91 
Q 1428 -91 1123 -41 
Q 819 9 494 109 
L 494 744 
Q 775 591 1075 516 
Q 1375 441 1709 441 
Q 2250 441 2565 725 
Q 2881 1009 2881 1497 
Q 2881 1984 2565 2268 
Q 2250 2553 1709 2553 
Q 1456 2553 1204 2497 
Q 953 2441 691 2322 
L 691 4666 
z
" id="DejaVuSans-35" transform="scale(0.015625)"/>
       </defs>
       <use xlink:href="#DejaVuSans-30"/>
       <use x="63.623047" xlink:href="#DejaVuSans-2e"/>
       <use x="95.410156" xlink:href="#DejaVuSans-35"/>
      </g>
     </g>
    </g>
    <g id="ytick_3">
     <g id="line2d_9">
      <g>
       <use style="stroke:#000000;stroke-width:0.8;" x="43.78125" xlink:href="#m52eebfb77f" y="268.492319"/>
      </g>
     </g>
     <g id="text_10">
      <!-- 1.0 -->
      <g transform="translate(20.878125 272.291537)scale(0.1 -0.1)">
       <use xlink:href="#DejaVuSans-31"/>
       <use x="63.623047" xlink:href="#DejaVuSans-2e"/>
       <use x="95.410156" xlink:href="#DejaVuSans-30"/>
      </g>
     </g>
    </g>
    <g id="ytick_4">
     <g id="line2d_10">
      <g>
       <use style="stroke:#000000;stroke-width:0.8;" x="43.78125" xlink:href="#m52eebfb77f" y="209.879415"/>
      </g>
     </g>
     <g id="text_11">
      <!-- 1.5 -->
      <g transform="translate(20.878125 213.678634)scale(0.1 -0.1)">
       <use xlink:href="#DejaVuSans-31"/>
       <use x="63.623047" xlink:href="#DejaVuSans-2e"/>
       <use x="95.410156" xlink:href="#DejaVuSans-35"/>
      </g>
     </g>
    </g>
    <g id="ytick_5">
     <g id="line2d_11">
      <g>
       <use style="stroke:#000000;stroke-width:0.8;" x="43.78125" xlink:href="#m52eebfb77f" y="151.266512"/>
      </g>
     </g>
     <g id="text_12">
      <!-- 2.0 -->
      <g transform="translate(20.878125 155.065731)scale(0.1 -0.1)">
       <use xlink:href="#DejaVuSans-32"/>
       <use x="63.623047" xlink:href="#DejaVuSans-2e"/>
       <use x="95.410156" xlink:href="#DejaVuSans-30"/>
      </g>
     </g>
    </g>
    <g id="ytick_6">
     <g id="line2d_12">
      <g>
       <use style="stroke:#000000;stroke-width:0.8;" x="43.78125" xlink:href="#m52eebfb77f" y="92.653609"/>
      </g>
     </g>
     <g id="text_13">
      <!-- 2.5 -->
      <g transform="translate(20.878125 96.452828)scale(0.1 -0.1)">
       <use xlink:href="#DejaVuSans-32"/>
       <use x="63.623047" xlink:href="#DejaVuSans-2e"/>
       <use x="95.410156" xlink:href="#DejaVuSans-35"/>
      </g>
     </g>
    </g>
    <g id="ytick_7">
     <g id="line2d_13">
      <g>
       <use style="stroke:#000000;stroke-width:0.8;" x="43.78125" xlink:href="#m52eebfb77f" y="34.040706"/>
      </g>
     </g>
     <g id="text_14">
      <!-- 3.0 -->
      <g transform="translate(20.878125 37.839924)scale(0.1 -0.1)">
       <defs>
        <path d="M 2597 2516 
Q 3050 2419 3304 2112 
Q 3559 1806 3559 1356 
Q 3559 666 3084 287 
Q 2609 -91 1734 -91 
Q 1441 -91 1130 -33 
Q 819 25 488 141 
L 488 750 
Q 750 597 1062 519 
Q 1375 441 1716 441 
Q 2309 441 2620 675 
Q 2931 909 2931 1356 
Q 2931 1769 2642 2001 
Q 2353 2234 1838 2234 
L 1294 2234 
L 1294 2753 
L 1863 2753 
Q 2328 2753 2575 2939 
Q 2822 3125 2822 3475 
Q 2822 3834 2567 4026 
Q 2313 4219 1838 4219 
Q 1578 4219 1281 4162 
Q 984 4106 628 3988 
L 628 4550 
Q 988 4650 1302 4700 
Q 1616 4750 1894 4750 
Q 2613 4750 3031 4423 
Q 3450 4097 3450 3541 
Q 3450 3153 3228 2886 
Q 3006 2619 2597 2516 
z
" id="DejaVuSans-33" transform="scale(0.015625)"/>
       </defs>
       <use xlink:href="#DejaVuSans-33"/>
       <use x="63.623047" xlink:href="#DejaVuSans-2e"/>
       <use x="95.410156" xlink:href="#DejaVuSans-30"/>
      </g>
     </g>
    </g>
    <g id="text_15">
     <!-- y -->
     <g transform="translate(14.798438 206.9775)rotate(-90)scale(0.1 -0.1)">
      <defs>
       <path d="M 2059 -325 
Q 1816 -950 1584 -1140 
Q 1353 -1331 966 -1331 
L 506 -1331 
L 506 -850 
L 844 -850 
Q 1081 -850 1212 -737 
Q 1344 -625 1503 -206 
L 1606 56 
L 191 3500 
L 800 3500 
L 1894 763 
L 2988 3500 
L 3597 3500 
L 2059 -325 
z
" id="DejaVuSans-79" transform="scale(0.015625)"/>
      </defs>
      <use xlink:href="#DejaVuSans-79"/>
     </g>
    </g>
   </g>
   <g id="patch_3">
    <path d="M 43.78125 385.718125 
L 43.78125 22.318125 
" style="fill:none;stroke:#000000;stroke-linecap:square;stroke-linejoin:miter;stroke-width:0.8;"/>
   </g>
   <g id="patch_4">
    <path d="M 420.357092 385.718125 
L 420.357092 22.318125 
" style="fill:none;stroke:#000000;stroke-linecap:square;stroke-linejoin:miter;stroke-width:0.8;"/>
   </g>
   <g id="patch_5">
    <path d="M 43.78125 385.718125 
L 420.357092 385.718125 
" style="fill:none;stroke:#000000;stroke-linecap:square;stroke-linejoin:miter;stroke-width:0.8;"/>
   </g>
   <g id="patch_6">
    <path d="M 43.78125 22.318125 
L 420.357092 22.318125 
" style="fill:none;stroke:#000000;stroke-linecap:square;stroke-linejoin:miter;stroke-width:0.8;"/>
   </g>
   <g id="text_16">
    <!-- Generated Data - Train -->
    <g transform="translate(163.633546 16.318125)scale(0.12 -0.12)">
     <defs>
      <path d="M 3809 666 
L 3809 1919 
L 2778 1919 
L 2778 2438 
L 4434 2438 
L 4434 434 
Q 4069 175 3628 42 
Q 3188 -91 2688 -91 
Q 1594 -91 976 548 
Q 359 1188 359 2328 
Q 359 3472 976 4111 
Q 1594 4750 2688 4750 
Q 3144 4750 3555 4637 
Q 3966 4525 4313 4306 
L 4313 3634 
Q 3963 3931 3569 4081 
Q 3175 4231 2741 4231 
Q 1884 4231 1454 3753 
Q 1025 3275 1025 2328 
Q 1025 1384 1454 906 
Q 1884 428 2741 428 
Q 3075 428 3337 486 
Q 3600 544 3809 666 
z
" id="DejaVuSans-47" transform="scale(0.015625)"/>
      <path d="M 3597 1894 
L 3597 1613 
L 953 1613 
Q 991 1019 1311 708 
Q 1631 397 2203 397 
Q 2534 397 2845 478 
Q 3156 559 3463 722 
L 3463 178 
Q 3153 47 2828 -22 
Q 2503 -91 2169 -91 
Q 1331 -91 842 396 
Q 353 884 353 1716 
Q 353 2575 817 3079 
Q 1281 3584 2069 3584 
Q 2775 3584 3186 3129 
Q 3597 2675 3597 1894 
z
M 3022 2063 
Q 3016 2534 2758 2815 
Q 2500 3097 2075 3097 
Q 1594 3097 1305 2825 
Q 1016 2553 972 2059 
L 3022 2063 
z
" id="DejaVuSans-65" transform="scale(0.015625)"/>
      <path d="M 3513 2113 
L 3513 0 
L 2938 0 
L 2938 2094 
Q 2938 2591 2744 2837 
Q 2550 3084 2163 3084 
Q 1697 3084 1428 2787 
Q 1159 2491 1159 1978 
L 1159 0 
L 581 0 
L 581 3500 
L 1159 3500 
L 1159 2956 
Q 1366 3272 1645 3428 
Q 1925 3584 2291 3584 
Q 2894 3584 3203 3211 
Q 3513 2838 3513 2113 
z
" id="DejaVuSans-6e" transform="scale(0.015625)"/>
      <path d="M 2631 2963 
Q 2534 3019 2420 3045 
Q 2306 3072 2169 3072 
Q 1681 3072 1420 2755 
Q 1159 2438 1159 1844 
L 1159 0 
L 581 0 
L 581 3500 
L 1159 3500 
L 1159 2956 
Q 1341 3275 1631 3429 
Q 1922 3584 2338 3584 
Q 2397 3584 2469 3576 
Q 2541 3569 2628 3553 
L 2631 2963 
z
" id="DejaVuSans-72" transform="scale(0.015625)"/>
      <path d="M 2194 1759 
Q 1497 1759 1228 1600 
Q 959 1441 959 1056 
Q 959 750 1161 570 
Q 1363 391 1709 391 
Q 2188 391 2477 730 
Q 2766 1069 2766 1631 
L 2766 1759 
L 2194 1759 
z
M 3341 1997 
L 3341 0 
L 2766 0 
L 2766 531 
Q 2569 213 2275 61 
Q 1981 -91 1556 -91 
Q 1019 -91 701 211 
Q 384 513 384 1019 
Q 384 1609 779 1909 
Q 1175 2209 1959 2209 
L 2766 2209 
L 2766 2266 
Q 2766 2663 2505 2880 
Q 2244 3097 1772 3097 
Q 1472 3097 1187 3025 
Q 903 2953 641 2809 
L 641 3341 
Q 956 3463 1253 3523 
Q 1550 3584 1831 3584 
Q 2591 3584 2966 3190 
Q 3341 2797 3341 1997 
z
" id="DejaVuSans-61" transform="scale(0.015625)"/>
      <path d="M 1172 4494 
L 1172 3500 
L 2356 3500 
L 2356 3053 
L 1172 3053 
L 1172 1153 
Q 1172 725 1289 603 
Q 1406 481 1766 481 
L 2356 481 
L 2356 0 
L 1766 0 
Q 1100 0 847 248 
Q 594 497 594 1153 
L 594 3053 
L 172 3053 
L 172 3500 
L 594 3500 
L 594 4494 
L 1172 4494 
z
" id="DejaVuSans-74" transform="scale(0.015625)"/>
      <path d="M 2906 2969 
L 2906 4863 
L 3481 4863 
L 3481 0 
L 2906 0 
L 2906 525 
Q 2725 213 2448 61 
Q 2172 -91 1784 -91 
Q 1150 -91 751 415 
Q 353 922 353 1747 
Q 353 2572 751 3078 
Q 1150 3584 1784 3584 
Q 2172 3584 2448 3432 
Q 2725 3281 2906 2969 
z
M 947 1747 
Q 947 1113 1208 752 
Q 1469 391 1925 391 
Q 2381 391 2643 752 
Q 2906 1113 2906 1747 
Q 2906 2381 2643 2742 
Q 2381 3103 1925 3103 
Q 1469 3103 1208 2742 
Q 947 2381 947 1747 
z
" id="DejaVuSans-64" transform="scale(0.015625)"/>
      <path id="DejaVuSans-20" transform="scale(0.015625)"/>
      <path d="M 1259 4147 
L 1259 519 
L 2022 519 
Q 2988 519 3436 956 
Q 3884 1394 3884 2338 
Q 3884 3275 3436 3711 
Q 2988 4147 2022 4147 
L 1259 4147 
z
M 628 4666 
L 1925 4666 
Q 3281 4666 3915 4102 
Q 4550 3538 4550 2338 
Q 4550 1131 3912 565 
Q 3275 0 1925 0 
L 628 0 
L 628 4666 
z
" id="DejaVuSans-44" transform="scale(0.015625)"/>
      <path d="M 313 2009 
L 1997 2009 
L 1997 1497 
L 313 1497 
L 313 2009 
z
" id="DejaVuSans-2d" transform="scale(0.015625)"/>
      <path d="M -19 4666 
L 3928 4666 
L 3928 4134 
L 2272 4134 
L 2272 0 
L 1638 0 
L 1638 4134 
L -19 4134 
L -19 4666 
z
" id="DejaVuSans-54" transform="scale(0.015625)"/>
      <path d="M 603 3500 
L 1178 3500 
L 1178 0 
L 603 0 
L 603 3500 
z
M 603 4863 
L 1178 4863 
L 1178 4134 
L 603 4134 
L 603 4863 
z
" id="DejaVuSans-69" transform="scale(0.015625)"/>
     </defs>
     <use xlink:href="#DejaVuSans-47"/>
     <use x="77.490234" xlink:href="#DejaVuSans-65"/>
     <use x="139.013672" xlink:href="#DejaVuSans-6e"/>
     <use x="202.392578" xlink:href="#DejaVuSans-65"/>
     <use x="263.916016" xlink:href="#DejaVuSans-72"/>
     <use x="305.029297" xlink:href="#DejaVuSans-61"/>
     <use x="366.308594" xlink:href="#DejaVuSans-74"/>
     <use x="405.517578" xlink:href="#DejaVuSans-65"/>
     <use x="467.041016" xlink:href="#DejaVuSans-64"/>
     <use x="530.517578" xlink:href="#DejaVuSans-20"/>
     <use x="562.304688" xlink:href="#DejaVuSans-44"/>
     <use x="639.306641" xlink:href="#DejaVuSans-61"/>
     <use x="700.585938" xlink:href="#DejaVuSans-74"/>
     <use x="739.794922" xlink:href="#DejaVuSans-61"/>
     <use x="801.074219" xlink:href="#DejaVuSans-20"/>
     <use x="832.861328" xlink:href="#DejaVuSans-2d"/>
     <use x="868.945312" xlink:href="#DejaVuSans-20"/>
     <use x="900.732422" xlink:href="#DejaVuSans-54"/>
     <use x="947.066406" xlink:href="#DejaVuSans-72"/>
     <use x="988.179688" xlink:href="#DejaVuSans-61"/>
     <use x="1049.458984" xlink:href="#DejaVuSans-69"/>
     <use x="1077.242188" xlink:href="#DejaVuSans-6e"/>
    </g>
   </g>
  </g>
  <g id="axes_2">
   <g id="patch_7">
    <path d="M 468.157092 385.718125 
L 844.732934 385.718125 
L 844.732934 22.318125 
L 468.157092 22.318125 
z
" style="fill:#ffffff;"/>
   </g>
   <g id="PathCollection_2">
    <defs>
     <path d="M 0 3 
C 0.795609 3 1.55874 2.683901 2.12132 2.12132 
C 2.683901 1.55874 3 0.795609 3 0 
C 3 -0.795609 2.683901 -1.55874 2.12132 -2.12132 
C 1.55874 -2.683901 0.795609 -3 0 -3 
C -0.795609 -3 -1.55874 -2.683901 -2.12132 -2.12132 
C -2.683901 -1.55874 -3 -0.795609 -3 0 
C -3 0.795609 -2.683901 1.55874 -2.12132 2.12132 
C -1.55874 2.683901 -0.795609 3 0 3 
z
" id="m9fa35de15e" style="stroke:#ff0000;"/>
    </defs>
    <g clip-path="url(#p95f280a48a)">
     <use style="fill:#ff0000;stroke:#ff0000;" x="581.425006" xlink:href="#m9fa35de15e" y="196.369076"/>
     <use style="fill:#ff0000;stroke:#ff0000;" x="526.072983" xlink:href="#m9fa35de15e" y="227.732871"/>
     <use style="fill:#ff0000;stroke:#ff0000;" x="714.725105" xlink:href="#m9fa35de15e" y="123.823268"/>
     <use style="fill:#ff0000;stroke:#ff0000;" x="508.157379" xlink:href="#m9fa35de15e" y="233.500277"/>
     <use style="fill:#ff0000;stroke:#ff0000;" x="806.643044" xlink:href="#m9fa35de15e" y="46.486088"/>
     <use style="fill:#ff0000;stroke:#ff0000;" x="581.286634" xlink:href="#m9fa35de15e" y="205.392108"/>
     <use style="fill:#ff0000;stroke:#ff0000;" x="671.591871" xlink:href="#m9fa35de15e" y="133.435732"/>
     <use style="fill:#ff0000;stroke:#ff0000;" x="755.114519" xlink:href="#m9fa35de15e" y="98.165224"/>
     <use style="fill:#ff0000;stroke:#ff0000;" x="827.615851" xlink:href="#m9fa35de15e" y="64.591281"/>
     <use style="fill:#ff0000;stroke:#ff0000;" x="690.939555" xlink:href="#m9fa35de15e" y="151.435308"/>
     <use style="fill:#ff0000;stroke:#ff0000;" x="628.848488" xlink:href="#m9fa35de15e" y="171.818632"/>
     <use style="fill:#ff0000;stroke:#ff0000;" x="661.66918" xlink:href="#m9fa35de15e" y="162.994844"/>
     <use style="fill:#ff0000;stroke:#ff0000;" x="612.733777" xlink:href="#m9fa35de15e" y="186.548051"/>
     <use style="fill:#ff0000;stroke:#ff0000;" x="495.739877" xlink:href="#m9fa35de15e" y="247.967303"/>
     <use style="fill:#ff0000;stroke:#ff0000;" x="600.843958" xlink:href="#m9fa35de15e" y="199.279832"/>
     <use style="fill:#ff0000;stroke:#ff0000;" x="659.496509" xlink:href="#m9fa35de15e" y="157.333985"/>
     <use style="fill:#ff0000;stroke:#ff0000;" x="662.661666" xlink:href="#m9fa35de15e" y="146.840595"/>
     <use style="fill:#ff0000;stroke:#ff0000;" x="485.274176" xlink:href="#m9fa35de15e" y="252.865426"/>
     <use style="fill:#ff0000;stroke:#ff0000;" x="695.853705" xlink:href="#m9fa35de15e" y="121.571127"/>
     <use style="fill:#ff0000;stroke:#ff0000;" x="627.208254" xlink:href="#m9fa35de15e" y="164.255456"/>
    </g>
   </g>
   <g id="matplotlib.axis_3">
    <g id="xtick_7">
     <g id="line2d_14">
      <g>
       <use style="stroke:#000000;stroke-width:0.8;" x="542.462464" xlink:href="#m81ed89b15d" y="385.718125"/>
      </g>
     </g>
     <g id="text_17">
      <!-- 0.2 -->
      <g transform="translate(534.510901 400.316562)scale(0.1 -0.1)">
       <use xlink:href="#DejaVuSans-30"/>
       <use x="63.623047" xlink:href="#DejaVuSans-2e"/>
       <use x="95.410156" xlink:href="#DejaVuSans-32"/>
      </g>
     </g>
    </g>
    <g id="xtick_8">
     <g id="line2d_15">
      <g>
       <use style="stroke:#000000;stroke-width:0.8;" x="616.950827" xlink:href="#m81ed89b15d" y="385.718125"/>
      </g>
     </g>
     <g id="text_18">
      <!-- 0.4 -->
      <g transform="translate(608.999265 400.316562)scale(0.1 -0.1)">
       <use xlink:href="#DejaVuSans-30"/>
       <use x="63.623047" xlink:href="#DejaVuSans-2e"/>
       <use x="95.410156" xlink:href="#DejaVuSans-34"/>
      </g>
     </g>
    </g>
    <g id="xtick_9">
     <g id="line2d_16">
      <g>
       <use style="stroke:#000000;stroke-width:0.8;" x="691.439191" xlink:href="#m81ed89b15d" y="385.718125"/>
      </g>
     </g>
     <g id="text_19">
      <!-- 0.6 -->
      <g transform="translate(683.487629 400.316562)scale(0.1 -0.1)">
       <use xlink:href="#DejaVuSans-30"/>
       <use x="63.623047" xlink:href="#DejaVuSans-2e"/>
       <use x="95.410156" xlink:href="#DejaVuSans-36"/>
      </g>
     </g>
    </g>
    <g id="xtick_10">
     <g id="line2d_17">
      <g>
       <use style="stroke:#000000;stroke-width:0.8;" x="765.927555" xlink:href="#m81ed89b15d" y="385.718125"/>
      </g>
     </g>
     <g id="text_20">
      <!-- 0.8 -->
      <g transform="translate(757.975993 400.316562)scale(0.1 -0.1)">
       <use xlink:href="#DejaVuSans-30"/>
       <use x="63.623047" xlink:href="#DejaVuSans-2e"/>
       <use x="95.410156" xlink:href="#DejaVuSans-38"/>
      </g>
     </g>
    </g>
    <g id="xtick_11">
     <g id="line2d_18">
      <g>
       <use style="stroke:#000000;stroke-width:0.8;" x="840.415919" xlink:href="#m81ed89b15d" y="385.718125"/>
      </g>
     </g>
     <g id="text_21">
      <!-- 1.0 -->
      <g transform="translate(832.464356 400.316562)scale(0.1 -0.1)">
       <use xlink:href="#DejaVuSans-31"/>
       <use x="63.623047" xlink:href="#DejaVuSans-2e"/>
       <use x="95.410156" xlink:href="#DejaVuSans-30"/>
      </g>
     </g>
    </g>
    <g id="text_22">
     <!-- x -->
     <g transform="translate(653.485638 413.994687)scale(0.1 -0.1)">
      <use xlink:href="#DejaVuSans-78"/>
     </g>
    </g>
   </g>
   <g id="matplotlib.axis_4">
    <g id="ytick_8">
     <g id="line2d_19">
      <g>
       <use style="stroke:#000000;stroke-width:0.8;" x="468.157092" xlink:href="#m52eebfb77f" y="385.718125"/>
      </g>
     </g>
     <g id="text_23">
      <!-- 0.0 -->
      <g transform="translate(445.253967 389.517344)scale(0.1 -0.1)">
       <use xlink:href="#DejaVuSans-30"/>
       <use x="63.623047" xlink:href="#DejaVuSans-2e"/>
       <use x="95.410156" xlink:href="#DejaVuSans-30"/>
      </g>
     </g>
    </g>
    <g id="ytick_9">
     <g id="line2d_20">
      <g>
       <use style="stroke:#000000;stroke-width:0.8;" x="468.157092" xlink:href="#m52eebfb77f" y="327.105222"/>
      </g>
     </g>
     <g id="text_24">
      <!-- 0.5 -->
      <g transform="translate(445.253967 330.904441)scale(0.1 -0.1)">
       <use xlink:href="#DejaVuSans-30"/>
       <use x="63.623047" xlink:href="#DejaVuSans-2e"/>
       <use x="95.410156" xlink:href="#DejaVuSans-35"/>
      </g>
     </g>
    </g>
    <g id="ytick_10">
     <g id="line2d_21">
      <g>
       <use style="stroke:#000000;stroke-width:0.8;" x="468.157092" xlink:href="#m52eebfb77f" y="268.492319"/>
      </g>
     </g>
     <g id="text_25">
      <!-- 1.0 -->
      <g transform="translate(445.253967 272.291537)scale(0.1 -0.1)">
       <use xlink:href="#DejaVuSans-31"/>
       <use x="63.623047" xlink:href="#DejaVuSans-2e"/>
       <use x="95.410156" xlink:href="#DejaVuSans-30"/>
      </g>
     </g>
    </g>
    <g id="ytick_11">
     <g id="line2d_22">
      <g>
       <use style="stroke:#000000;stroke-width:0.8;" x="468.157092" xlink:href="#m52eebfb77f" y="209.879415"/>
      </g>
     </g>
     <g id="text_26">
      <!-- 1.5 -->
      <g transform="translate(445.253967 213.678634)scale(0.1 -0.1)">
       <use xlink:href="#DejaVuSans-31"/>
       <use x="63.623047" xlink:href="#DejaVuSans-2e"/>
       <use x="95.410156" xlink:href="#DejaVuSans-35"/>
      </g>
     </g>
    </g>
    <g id="ytick_12">
     <g id="line2d_23">
      <g>
       <use style="stroke:#000000;stroke-width:0.8;" x="468.157092" xlink:href="#m52eebfb77f" y="151.266512"/>
      </g>
     </g>
     <g id="text_27">
      <!-- 2.0 -->
      <g transform="translate(445.253967 155.065731)scale(0.1 -0.1)">
       <use xlink:href="#DejaVuSans-32"/>
       <use x="63.623047" xlink:href="#DejaVuSans-2e"/>
       <use x="95.410156" xlink:href="#DejaVuSans-30"/>
      </g>
     </g>
    </g>
    <g id="ytick_13">
     <g id="line2d_24">
      <g>
       <use style="stroke:#000000;stroke-width:0.8;" x="468.157092" xlink:href="#m52eebfb77f" y="92.653609"/>
      </g>
     </g>
     <g id="text_28">
      <!-- 2.5 -->
      <g transform="translate(445.253967 96.452828)scale(0.1 -0.1)">
       <use xlink:href="#DejaVuSans-32"/>
       <use x="63.623047" xlink:href="#DejaVuSans-2e"/>
       <use x="95.410156" xlink:href="#DejaVuSans-35"/>
      </g>
     </g>
    </g>
    <g id="ytick_14">
     <g id="line2d_25">
      <g>
       <use style="stroke:#000000;stroke-width:0.8;" x="468.157092" xlink:href="#m52eebfb77f" y="34.040706"/>
      </g>
     </g>
     <g id="text_29">
      <!-- 3.0 -->
      <g transform="translate(445.253967 37.839924)scale(0.1 -0.1)">
       <use xlink:href="#DejaVuSans-33"/>
       <use x="63.623047" xlink:href="#DejaVuSans-2e"/>
       <use x="95.410156" xlink:href="#DejaVuSans-30"/>
      </g>
     </g>
    </g>
    <g id="text_30">
     <!-- y -->
     <g transform="translate(439.17428 206.9775)rotate(-90)scale(0.1 -0.1)">
      <use xlink:href="#DejaVuSans-79"/>
     </g>
    </g>
   </g>
   <g id="patch_8">
    <path d="M 468.157092 385.718125 
L 468.157092 22.318125 
" style="fill:none;stroke:#000000;stroke-linecap:square;stroke-linejoin:miter;stroke-width:0.8;"/>
   </g>
   <g id="patch_9">
    <path d="M 844.732934 385.718125 
L 844.732934 22.318125 
" style="fill:none;stroke:#000000;stroke-linecap:square;stroke-linejoin:miter;stroke-width:0.8;"/>
   </g>
   <g id="patch_10">
    <path d="M 468.157092 385.718125 
L 844.732934 385.718125 
" style="fill:none;stroke:#000000;stroke-linecap:square;stroke-linejoin:miter;stroke-width:0.8;"/>
   </g>
   <g id="patch_11">
    <path d="M 468.157092 22.318125 
L 844.732934 22.318125 
" style="fill:none;stroke:#000000;stroke-linecap:square;stroke-linejoin:miter;stroke-width:0.8;"/>
   </g>
   <g id="text_31">
    <!-- Generated Data - Validation -->
    <g transform="translate(572.773138 16.318125)scale(0.12 -0.12)">
     <defs>
      <path d="M 1831 0 
L 50 4666 
L 709 4666 
L 2188 738 
L 3669 4666 
L 4325 4666 
L 2547 0 
L 1831 0 
z
" id="DejaVuSans-56" transform="scale(0.015625)"/>
      <path d="M 603 4863 
L 1178 4863 
L 1178 0 
L 603 0 
L 603 4863 
z
" id="DejaVuSans-6c" transform="scale(0.015625)"/>
      <path d="M 1959 3097 
Q 1497 3097 1228 2736 
Q 959 2375 959 1747 
Q 959 1119 1226 758 
Q 1494 397 1959 397 
Q 2419 397 2687 759 
Q 2956 1122 2956 1747 
Q 2956 2369 2687 2733 
Q 2419 3097 1959 3097 
z
M 1959 3584 
Q 2709 3584 3137 3096 
Q 3566 2609 3566 1747 
Q 3566 888 3137 398 
Q 2709 -91 1959 -91 
Q 1206 -91 779 398 
Q 353 888 353 1747 
Q 353 2609 779 3096 
Q 1206 3584 1959 3584 
z
" id="DejaVuSans-6f" transform="scale(0.015625)"/>
     </defs>
     <use xlink:href="#DejaVuSans-47"/>
     <use x="77.490234" xlink:href="#DejaVuSans-65"/>
     <use x="139.013672" xlink:href="#DejaVuSans-6e"/>
     <use x="202.392578" xlink:href="#DejaVuSans-65"/>
     <use x="263.916016" xlink:href="#DejaVuSans-72"/>
     <use x="305.029297" xlink:href="#DejaVuSans-61"/>
     <use x="366.308594" xlink:href="#DejaVuSans-74"/>
     <use x="405.517578" xlink:href="#DejaVuSans-65"/>
     <use x="467.041016" xlink:href="#DejaVuSans-64"/>
     <use x="530.517578" xlink:href="#DejaVuSans-20"/>
     <use x="562.304688" xlink:href="#DejaVuSans-44"/>
     <use x="639.306641" xlink:href="#DejaVuSans-61"/>
     <use x="700.585938" xlink:href="#DejaVuSans-74"/>
     <use x="739.794922" xlink:href="#DejaVuSans-61"/>
     <use x="801.074219" xlink:href="#DejaVuSans-20"/>
     <use x="832.861328" xlink:href="#DejaVuSans-2d"/>
     <use x="868.945312" xlink:href="#DejaVuSans-20"/>
     <use x="900.732422" xlink:href="#DejaVuSans-56"/>
     <use x="961.390625" xlink:href="#DejaVuSans-61"/>
     <use x="1022.669922" xlink:href="#DejaVuSans-6c"/>
     <use x="1050.453125" xlink:href="#DejaVuSans-69"/>
     <use x="1078.236328" xlink:href="#DejaVuSans-64"/>
     <use x="1141.712891" xlink:href="#DejaVuSans-61"/>
     <use x="1202.992188" xlink:href="#DejaVuSans-74"/>
     <use x="1242.201172" xlink:href="#DejaVuSans-69"/>
     <use x="1269.984375" xlink:href="#DejaVuSans-6f"/>
     <use x="1331.166016" xlink:href="#DejaVuSans-6e"/>
    </g>
   </g>
  </g>
 </g>
 <defs>
  <clipPath id="p5fb7cb8b8d">
   <rect height="363.4" width="376.575842" x="43.78125" y="22.318125"/>
  </clipPath>
  <clipPath id="p95f280a48a">
   <rect height="363.4" width="376.575842" x="468.157092" y="22.318125"/>
  </clipPath>
 </defs>
</svg>
