<?xml version="1.0" encoding="utf-8" standalone="no"?>
<!DOCTYPE svg PUBLIC "-//W3C//DTD SVG 1.1//EN"
  "http://www.w3.org/Graphics/SVG/1.1/DTD/svg11.dtd">
<svg height="263.63625pt" version="1.1" viewBox="0 0 494.809359 263.63625" width="494.809359pt" xmlns="http://www.w3.org/2000/svg" xmlns:xlink="http://www.w3.org/1999/xlink">
 <metadata>
  <rdf:RDF xmlns:cc="http://creativecommons.org/ns#" xmlns:dc="http://purl.org/dc/elements/1.1/" xmlns:rdf="http://www.w3.org/1999/02/22-rdf-syntax-ns#">
   <cc:Work>
    <dc:type rdf:resource="http://purl.org/dc/dcmitype/StillImage"/>
    <dc:date>2021-09-02T10:06:59.532043</dc:date>
    <dc:format>image/svg+xml</dc:format>
    <dc:creator>
     <cc:Agent>
      <dc:title>Matplotlib v3.4.0, https://matplotlib.org/</dc:title>
     </cc:Agent>
    </dc:creator>
   </cc:Work>
  </rdf:RDF>
 </metadata>
 <defs>
  <style type="text/css">*{stroke-linecap:butt;stroke-linejoin:round;}</style>
 </defs>
 <g id="figure_1">
  <g id="patch_1">
   <path d="M 0 263.63625 
L 494.809359 263.63625 
L 494.809359 0 
L 0 0 
z
" style="fill:none;"/>
  </g>
  <g id="axes_1">
   <g id="patch_2">
    <path d="M 41.667188 239.758125 
L 376.467188 239.758125 
L 376.467188 22.318125 
L 41.667188 22.318125 
z
" style="fill:#ffffff;"/>
   </g>
   <g id="PathCollection_1">
    <defs>
     <path d="M 0 3 
C 0.795609 3 1.55874 2.683901 2.12132 2.12132 
C 2.683901 1.55874 3 0.795609 3 0 
C 3 -0.795609 2.683901 -1.55874 2.12132 -2.12132 
C 1.55874 -2.683901 0.795609 -3 0 -3 
C -0.795609 -3 -1.55874 -2.683901 -2.12132 -2.12132 
C -2.683901 -1.55874 -3 -0.795609 -3 0 
C -3 0.795609 -2.683901 1.55874 -2.12132 2.12132 
C -1.55874 2.683901 -0.795609 3 0 3 
z
" id="m9b4140f256" style="stroke:#1f77b4;"/>
    </defs>
    <g clip-path="url(#pea0dd4ec2e)">
     <use style="fill:#1f77b4;stroke:#1f77b4;" x="259.468933" xlink:href="#m9b4140f256" y="100.007617"/>
     <use style="fill:#1f77b4;stroke:#1f77b4;" x="157.672661" xlink:href="#m9b4140f256" y="134.670379"/>
     <use style="fill:#1f77b4;stroke:#1f77b4;" x="138.473791" xlink:href="#m9b4140f256" y="54.103532"/>
     <use style="fill:#1f77b4;stroke:#1f77b4;" x="331.118139" xlink:href="#m9b4140f256" y="231.414188"/>
     <use style="fill:#1f77b4;stroke:#1f77b4;" x="83.911333" xlink:href="#m9b4140f256" y="196.358278"/>
     <use style="fill:#1f77b4;stroke:#1f77b4;" x="256.245353" xlink:href="#m9b4140f256" y="22.318135"/>
     <use style="fill:#1f77b4;stroke:#1f77b4;" x="191.401728" xlink:href="#m9b4140f256" y="239.758135"/>
     <use style="fill:#1f77b4;stroke:#1f77b4;" x="252.834365" xlink:href="#m9b4140f256" y="172.771756"/>
     <use style="fill:#1f77b4;stroke:#1f77b4;" x="41.667171" xlink:href="#m9b4140f256" y="111.614923"/>
     <use style="fill:#1f77b4;stroke:#1f77b4;" x="373.461911" xlink:href="#m9b4140f256" y="71.029966"/>
     <use style="fill:#1f77b4;stroke:#1f77b4;" x="376.467171" xlink:href="#m9b4140f256" y="151.893102"/>
    </g>
   </g>
   <g id="matplotlib.axis_1">
    <g id="xtick_1">
     <g id="line2d_1">
      <defs>
       <path d="M 0 0 
L 0 3.5 
" id="m7c04f45b79" style="stroke:#000000;stroke-width:0.8;"/>
      </defs>
      <g>
       <use style="stroke:#000000;stroke-width:0.8;" x="78.016332" xlink:href="#m7c04f45b79" y="239.758125"/>
      </g>
     </g>
     <g id="text_1">
      <!-- −400 -->
      <g transform="translate(64.282738 254.356563)scale(0.1 -0.1)">
       <defs>
        <path d="M 678 2272 
L 4684 2272 
L 4684 1741 
L 678 1741 
L 678 2272 
z
" id="DejaVuSans-2212" transform="scale(0.015625)"/>
        <path d="M 2419 4116 
L 825 1625 
L 2419 1625 
L 2419 4116 
z
M 2253 4666 
L 3047 4666 
L 3047 1625 
L 3713 1625 
L 3713 1100 
L 3047 1100 
L 3047 0 
L 2419 0 
L 2419 1100 
L 313 1100 
L 313 1709 
L 2253 4666 
z
" id="DejaVuSans-34" transform="scale(0.015625)"/>
        <path d="M 2034 4250 
Q 1547 4250 1301 3770 
Q 1056 3291 1056 2328 
Q 1056 1369 1301 889 
Q 1547 409 2034 409 
Q 2525 409 2770 889 
Q 3016 1369 3016 2328 
Q 3016 3291 2770 3770 
Q 2525 4250 2034 4250 
z
M 2034 4750 
Q 2819 4750 3233 4129 
Q 3647 3509 3647 2328 
Q 3647 1150 3233 529 
Q 2819 -91 2034 -91 
Q 1250 -91 836 529 
Q 422 1150 422 2328 
Q 422 3509 836 4129 
Q 1250 4750 2034 4750 
z
" id="DejaVuSans-30" transform="scale(0.015625)"/>
       </defs>
       <use xlink:href="#DejaVuSans-2212"/>
       <use x="83.789062" xlink:href="#DejaVuSans-34"/>
       <use x="147.412109" xlink:href="#DejaVuSans-30"/>
       <use x="211.035156" xlink:href="#DejaVuSans-30"/>
      </g>
     </g>
    </g>
    <g id="xtick_2">
     <g id="line2d_2">
      <g>
       <use style="stroke:#000000;stroke-width:0.8;" x="143.017665" xlink:href="#m7c04f45b79" y="239.758125"/>
      </g>
     </g>
     <g id="text_2">
      <!-- −200 -->
      <g transform="translate(129.284071 254.356563)scale(0.1 -0.1)">
       <defs>
        <path d="M 1228 531 
L 3431 531 
L 3431 0 
L 469 0 
L 469 531 
Q 828 903 1448 1529 
Q 2069 2156 2228 2338 
Q 2531 2678 2651 2914 
Q 2772 3150 2772 3378 
Q 2772 3750 2511 3984 
Q 2250 4219 1831 4219 
Q 1534 4219 1204 4116 
Q 875 4013 500 3803 
L 500 4441 
Q 881 4594 1212 4672 
Q 1544 4750 1819 4750 
Q 2544 4750 2975 4387 
Q 3406 4025 3406 3419 
Q 3406 3131 3298 2873 
Q 3191 2616 2906 2266 
Q 2828 2175 2409 1742 
Q 1991 1309 1228 531 
z
" id="DejaVuSans-32" transform="scale(0.015625)"/>
       </defs>
       <use xlink:href="#DejaVuSans-2212"/>
       <use x="83.789062" xlink:href="#DejaVuSans-32"/>
       <use x="147.412109" xlink:href="#DejaVuSans-30"/>
       <use x="211.035156" xlink:href="#DejaVuSans-30"/>
      </g>
     </g>
    </g>
    <g id="xtick_3">
     <g id="line2d_3">
      <g>
       <use style="stroke:#000000;stroke-width:0.8;" x="208.018998" xlink:href="#m7c04f45b79" y="239.758125"/>
      </g>
     </g>
     <g id="text_3">
      <!-- 0 -->
      <g transform="translate(204.837748 254.356563)scale(0.1 -0.1)">
       <use xlink:href="#DejaVuSans-30"/>
      </g>
     </g>
    </g>
    <g id="xtick_4">
     <g id="line2d_4">
      <g>
       <use style="stroke:#000000;stroke-width:0.8;" x="273.020331" xlink:href="#m7c04f45b79" y="239.758125"/>
      </g>
     </g>
     <g id="text_4">
      <!-- 200 -->
      <g transform="translate(263.476581 254.356563)scale(0.1 -0.1)">
       <use xlink:href="#DejaVuSans-32"/>
       <use x="63.623047" xlink:href="#DejaVuSans-30"/>
       <use x="127.246094" xlink:href="#DejaVuSans-30"/>
      </g>
     </g>
    </g>
    <g id="xtick_5">
     <g id="line2d_5">
      <g>
       <use style="stroke:#000000;stroke-width:0.8;" x="338.021664" xlink:href="#m7c04f45b79" y="239.758125"/>
      </g>
     </g>
     <g id="text_5">
      <!-- 400 -->
      <g transform="translate(328.477914 254.356563)scale(0.1 -0.1)">
       <use xlink:href="#DejaVuSans-34"/>
       <use x="63.623047" xlink:href="#DejaVuSans-30"/>
       <use x="127.246094" xlink:href="#DejaVuSans-30"/>
      </g>
     </g>
    </g>
   </g>
   <g id="matplotlib.axis_2">
    <g id="ytick_1">
     <g id="line2d_6">
      <defs>
       <path d="M 0 0 
L -3.5 0 
" id="m98d51e7040" style="stroke:#000000;stroke-width:0.8;"/>
      </defs>
      <g>
       <use style="stroke:#000000;stroke-width:0.8;" x="41.667188" xlink:href="#m98d51e7040" y="213.618381"/>
      </g>
     </g>
     <g id="text_6">
      <!-- −400 -->
      <g transform="translate(7.2 217.4176)scale(0.1 -0.1)">
       <use xlink:href="#DejaVuSans-2212"/>
       <use x="83.789062" xlink:href="#DejaVuSans-34"/>
       <use x="147.412109" xlink:href="#DejaVuSans-30"/>
       <use x="211.035156" xlink:href="#DejaVuSans-30"/>
      </g>
     </g>
    </g>
    <g id="ytick_2">
     <g id="line2d_7">
      <g>
       <use style="stroke:#000000;stroke-width:0.8;" x="41.667188" xlink:href="#m98d51e7040" y="172.51903"/>
      </g>
     </g>
     <g id="text_7">
      <!-- −200 -->
      <g transform="translate(7.2 176.318249)scale(0.1 -0.1)">
       <use xlink:href="#DejaVuSans-2212"/>
       <use x="83.789062" xlink:href="#DejaVuSans-32"/>
       <use x="147.412109" xlink:href="#DejaVuSans-30"/>
       <use x="211.035156" xlink:href="#DejaVuSans-30"/>
      </g>
     </g>
    </g>
    <g id="ytick_3">
     <g id="line2d_8">
      <g>
       <use style="stroke:#000000;stroke-width:0.8;" x="41.667188" xlink:href="#m98d51e7040" y="131.419679"/>
      </g>
     </g>
     <g id="text_8">
      <!-- 0 -->
      <g transform="translate(28.304688 135.218898)scale(0.1 -0.1)">
       <use xlink:href="#DejaVuSans-30"/>
      </g>
     </g>
    </g>
    <g id="ytick_4">
     <g id="line2d_9">
      <g>
       <use style="stroke:#000000;stroke-width:0.8;" x="41.667188" xlink:href="#m98d51e7040" y="90.320328"/>
      </g>
     </g>
     <g id="text_9">
      <!-- 200 -->
      <g transform="translate(15.579688 94.119547)scale(0.1 -0.1)">
       <use xlink:href="#DejaVuSans-32"/>
       <use x="63.623047" xlink:href="#DejaVuSans-30"/>
       <use x="127.246094" xlink:href="#DejaVuSans-30"/>
      </g>
     </g>
    </g>
    <g id="ytick_5">
     <g id="line2d_10">
      <g>
       <use style="stroke:#000000;stroke-width:0.8;" x="41.667188" xlink:href="#m98d51e7040" y="49.220977"/>
      </g>
     </g>
     <g id="text_10">
      <!-- 400 -->
      <g transform="translate(15.579688 53.020196)scale(0.1 -0.1)">
       <use xlink:href="#DejaVuSans-34"/>
       <use x="63.623047" xlink:href="#DejaVuSans-30"/>
       <use x="127.246094" xlink:href="#DejaVuSans-30"/>
      </g>
     </g>
    </g>
   </g>
   <g id="patch_3">
    <path d="M 41.667188 239.758125 
L 41.667188 22.318125 
" style="fill:none;stroke:#000000;stroke-linecap:square;stroke-linejoin:miter;stroke-width:0.8;"/>
   </g>
   <g id="patch_4">
    <path d="M 376.467188 239.758125 
L 376.467188 22.318125 
" style="fill:none;stroke:#000000;stroke-linecap:square;stroke-linejoin:miter;stroke-width:0.8;"/>
   </g>
   <g id="patch_5">
    <path d="M 41.667188 239.758125 
L 376.467188 239.758125 
" style="fill:none;stroke:#000000;stroke-linecap:square;stroke-linejoin:miter;stroke-width:0.8;"/>
   </g>
   <g id="patch_6">
    <path d="M 41.667188 22.318125 
L 376.467188 22.318125 
" style="fill:none;stroke:#000000;stroke-linecap:square;stroke-linejoin:miter;stroke-width:0.8;"/>
   </g>
   <g id="text_11">
    <!-- math -->
    <g transform="translate(259.468933 100.007617)scale(0.1 -0.1)">
     <defs>
      <path d="M 3328 2828 
Q 3544 3216 3844 3400 
Q 4144 3584 4550 3584 
Q 5097 3584 5394 3201 
Q 5691 2819 5691 2113 
L 5691 0 
L 5113 0 
L 5113 2094 
Q 5113 2597 4934 2840 
Q 4756 3084 4391 3084 
Q 3944 3084 3684 2787 
Q 3425 2491 3425 1978 
L 3425 0 
L 2847 0 
L 2847 2094 
Q 2847 2600 2669 2842 
Q 2491 3084 2119 3084 
Q 1678 3084 1418 2786 
Q 1159 2488 1159 1978 
L 1159 0 
L 581 0 
L 581 3500 
L 1159 3500 
L 1159 2956 
Q 1356 3278 1631 3431 
Q 1906 3584 2284 3584 
Q 2666 3584 2933 3390 
Q 3200 3197 3328 2828 
z
" id="DejaVuSans-6d" transform="scale(0.015625)"/>
      <path d="M 2194 1759 
Q 1497 1759 1228 1600 
Q 959 1441 959 1056 
Q 959 750 1161 570 
Q 1363 391 1709 391 
Q 2188 391 2477 730 
Q 2766 1069 2766 1631 
L 2766 1759 
L 2194 1759 
z
M 3341 1997 
L 3341 0 
L 2766 0 
L 2766 531 
Q 2569 213 2275 61 
Q 1981 -91 1556 -91 
Q 1019 -91 701 211 
Q 384 513 384 1019 
Q 384 1609 779 1909 
Q 1175 2209 1959 2209 
L 2766 2209 
L 2766 2266 
Q 2766 2663 2505 2880 
Q 2244 3097 1772 3097 
Q 1472 3097 1187 3025 
Q 903 2953 641 2809 
L 641 3341 
Q 956 3463 1253 3523 
Q 1550 3584 1831 3584 
Q 2591 3584 2966 3190 
Q 3341 2797 3341 1997 
z
" id="DejaVuSans-61" transform="scale(0.015625)"/>
      <path d="M 1172 4494 
L 1172 3500 
L 2356 3500 
L 2356 3053 
L 1172 3053 
L 1172 1153 
Q 1172 725 1289 603 
Q 1406 481 1766 481 
L 2356 481 
L 2356 0 
L 1766 0 
Q 1100 0 847 248 
Q 594 497 594 1153 
L 594 3053 
L 172 3053 
L 172 3500 
L 594 3500 
L 594 4494 
L 1172 4494 
z
" id="DejaVuSans-74" transform="scale(0.015625)"/>
      <path d="M 3513 2113 
L 3513 0 
L 2938 0 
L 2938 2094 
Q 2938 2591 2744 2837 
Q 2550 3084 2163 3084 
Q 1697 3084 1428 2787 
Q 1159 2491 1159 1978 
L 1159 0 
L 581 0 
L 581 4863 
L 1159 4863 
L 1159 2956 
Q 1366 3272 1645 3428 
Q 1925 3584 2291 3584 
Q 2894 3584 3203 3211 
Q 3513 2838 3513 2113 
z
" id="DejaVuSans-68" transform="scale(0.015625)"/>
     </defs>
     <use xlink:href="#DejaVuSans-6d"/>
     <use x="97.412109" xlink:href="#DejaVuSans-61"/>
     <use x="158.691406" xlink:href="#DejaVuSans-74"/>
     <use x="197.900391" xlink:href="#DejaVuSans-68"/>
    </g>
   </g>
   <g id="text_12">
    <!-- mathematics -->
    <g transform="translate(157.672661 134.670379)scale(0.1 -0.1)">
     <defs>
      <path d="M 3597 1894 
L 3597 1613 
L 953 1613 
Q 991 1019 1311 708 
Q 1631 397 2203 397 
Q 2534 397 2845 478 
Q 3156 559 3463 722 
L 3463 178 
Q 3153 47 2828 -22 
Q 2503 -91 2169 -91 
Q 1331 -91 842 396 
Q 353 884 353 1716 
Q 353 2575 817 3079 
Q 1281 3584 2069 3584 
Q 2775 3584 3186 3129 
Q 3597 2675 3597 1894 
z
M 3022 2063 
Q 3016 2534 2758 2815 
Q 2500 3097 2075 3097 
Q 1594 3097 1305 2825 
Q 1016 2553 972 2059 
L 3022 2063 
z
" id="DejaVuSans-65" transform="scale(0.015625)"/>
      <path d="M 603 3500 
L 1178 3500 
L 1178 0 
L 603 0 
L 603 3500 
z
M 603 4863 
L 1178 4863 
L 1178 4134 
L 603 4134 
L 603 4863 
z
" id="DejaVuSans-69" transform="scale(0.015625)"/>
      <path d="M 3122 3366 
L 3122 2828 
Q 2878 2963 2633 3030 
Q 2388 3097 2138 3097 
Q 1578 3097 1268 2742 
Q 959 2388 959 1747 
Q 959 1106 1268 751 
Q 1578 397 2138 397 
Q 2388 397 2633 464 
Q 2878 531 3122 666 
L 3122 134 
Q 2881 22 2623 -34 
Q 2366 -91 2075 -91 
Q 1284 -91 818 406 
Q 353 903 353 1747 
Q 353 2603 823 3093 
Q 1294 3584 2113 3584 
Q 2378 3584 2631 3529 
Q 2884 3475 3122 3366 
z
" id="DejaVuSans-63" transform="scale(0.015625)"/>
      <path d="M 2834 3397 
L 2834 2853 
Q 2591 2978 2328 3040 
Q 2066 3103 1784 3103 
Q 1356 3103 1142 2972 
Q 928 2841 928 2578 
Q 928 2378 1081 2264 
Q 1234 2150 1697 2047 
L 1894 2003 
Q 2506 1872 2764 1633 
Q 3022 1394 3022 966 
Q 3022 478 2636 193 
Q 2250 -91 1575 -91 
Q 1294 -91 989 -36 
Q 684 19 347 128 
L 347 722 
Q 666 556 975 473 
Q 1284 391 1588 391 
Q 1994 391 2212 530 
Q 2431 669 2431 922 
Q 2431 1156 2273 1281 
Q 2116 1406 1581 1522 
L 1381 1569 
Q 847 1681 609 1914 
Q 372 2147 372 2553 
Q 372 3047 722 3315 
Q 1072 3584 1716 3584 
Q 2034 3584 2315 3537 
Q 2597 3491 2834 3397 
z
" id="DejaVuSans-73" transform="scale(0.015625)"/>
     </defs>
     <use xlink:href="#DejaVuSans-6d"/>
     <use x="97.412109" xlink:href="#DejaVuSans-61"/>
     <use x="158.691406" xlink:href="#DejaVuSans-74"/>
     <use x="197.900391" xlink:href="#DejaVuSans-68"/>
     <use x="261.279297" xlink:href="#DejaVuSans-65"/>
     <use x="322.802734" xlink:href="#DejaVuSans-6d"/>
     <use x="420.214844" xlink:href="#DejaVuSans-61"/>
     <use x="481.494141" xlink:href="#DejaVuSans-74"/>
     <use x="520.703125" xlink:href="#DejaVuSans-69"/>
     <use x="548.486328" xlink:href="#DejaVuSans-63"/>
     <use x="603.466797" xlink:href="#DejaVuSans-73"/>
    </g>
   </g>
   <g id="text_13">
    <!-- algebra -->
    <g transform="translate(138.473791 54.103532)scale(0.1 -0.1)">
     <defs>
      <path d="M 603 4863 
L 1178 4863 
L 1178 0 
L 603 0 
L 603 4863 
z
" id="DejaVuSans-6c" transform="scale(0.015625)"/>
      <path d="M 2906 1791 
Q 2906 2416 2648 2759 
Q 2391 3103 1925 3103 
Q 1463 3103 1205 2759 
Q 947 2416 947 1791 
Q 947 1169 1205 825 
Q 1463 481 1925 481 
Q 2391 481 2648 825 
Q 2906 1169 2906 1791 
z
M 3481 434 
Q 3481 -459 3084 -895 
Q 2688 -1331 1869 -1331 
Q 1566 -1331 1297 -1286 
Q 1028 -1241 775 -1147 
L 775 -588 
Q 1028 -725 1275 -790 
Q 1522 -856 1778 -856 
Q 2344 -856 2625 -561 
Q 2906 -266 2906 331 
L 2906 616 
Q 2728 306 2450 153 
Q 2172 0 1784 0 
Q 1141 0 747 490 
Q 353 981 353 1791 
Q 353 2603 747 3093 
Q 1141 3584 1784 3584 
Q 2172 3584 2450 3431 
Q 2728 3278 2906 2969 
L 2906 3500 
L 3481 3500 
L 3481 434 
z
" id="DejaVuSans-67" transform="scale(0.015625)"/>
      <path d="M 3116 1747 
Q 3116 2381 2855 2742 
Q 2594 3103 2138 3103 
Q 1681 3103 1420 2742 
Q 1159 2381 1159 1747 
Q 1159 1113 1420 752 
Q 1681 391 2138 391 
Q 2594 391 2855 752 
Q 3116 1113 3116 1747 
z
M 1159 2969 
Q 1341 3281 1617 3432 
Q 1894 3584 2278 3584 
Q 2916 3584 3314 3078 
Q 3713 2572 3713 1747 
Q 3713 922 3314 415 
Q 2916 -91 2278 -91 
Q 1894 -91 1617 61 
Q 1341 213 1159 525 
L 1159 0 
L 581 0 
L 581 4863 
L 1159 4863 
L 1159 2969 
z
" id="DejaVuSans-62" transform="scale(0.015625)"/>
      <path d="M 2631 2963 
Q 2534 3019 2420 3045 
Q 2306 3072 2169 3072 
Q 1681 3072 1420 2755 
Q 1159 2438 1159 1844 
L 1159 0 
L 581 0 
L 581 3500 
L 1159 3500 
L 1159 2956 
Q 1341 3275 1631 3429 
Q 1922 3584 2338 3584 
Q 2397 3584 2469 3576 
Q 2541 3569 2628 3553 
L 2631 2963 
z
" id="DejaVuSans-72" transform="scale(0.015625)"/>
     </defs>
     <use xlink:href="#DejaVuSans-61"/>
     <use x="61.279297" xlink:href="#DejaVuSans-6c"/>
     <use x="89.0625" xlink:href="#DejaVuSans-67"/>
     <use x="152.539062" xlink:href="#DejaVuSans-65"/>
     <use x="214.0625" xlink:href="#DejaVuSans-62"/>
     <use x="277.539062" xlink:href="#DejaVuSans-72"/>
     <use x="318.652344" xlink:href="#DejaVuSans-61"/>
    </g>
   </g>
   <g id="text_14">
    <!-- Math -->
    <g transform="translate(331.118139 231.414188)scale(0.1 -0.1)">
     <defs>
      <path d="M 628 4666 
L 1569 4666 
L 2759 1491 
L 3956 4666 
L 4897 4666 
L 4897 0 
L 4281 0 
L 4281 4097 
L 3078 897 
L 2444 897 
L 1241 4097 
L 1241 0 
L 628 0 
L 628 4666 
z
" id="DejaVuSans-4d" transform="scale(0.015625)"/>
     </defs>
     <use xlink:href="#DejaVuSans-4d"/>
     <use x="86.279297" xlink:href="#DejaVuSans-61"/>
     <use x="147.558594" xlink:href="#DejaVuSans-74"/>
     <use x="186.767578" xlink:href="#DejaVuSans-68"/>
    </g>
   </g>
   <g id="text_15">
    <!-- maths -->
    <g transform="translate(83.911333 196.358278)scale(0.1 -0.1)">
     <use xlink:href="#DejaVuSans-6d"/>
     <use x="97.412109" xlink:href="#DejaVuSans-61"/>
     <use x="158.691406" xlink:href="#DejaVuSans-74"/>
     <use x="197.900391" xlink:href="#DejaVuSans-68"/>
     <use x="261.279297" xlink:href="#DejaVuSans-73"/>
    </g>
   </g>
   <g id="text_16">
    <!-- reading_comprehension -->
    <g transform="translate(256.245353 22.318135)scale(0.1 -0.1)">
     <defs>
      <path d="M 2906 2969 
L 2906 4863 
L 3481 4863 
L 3481 0 
L 2906 0 
L 2906 525 
Q 2725 213 2448 61 
Q 2172 -91 1784 -91 
Q 1150 -91 751 415 
Q 353 922 353 1747 
Q 353 2572 751 3078 
Q 1150 3584 1784 3584 
Q 2172 3584 2448 3432 
Q 2725 3281 2906 2969 
z
M 947 1747 
Q 947 1113 1208 752 
Q 1469 391 1925 391 
Q 2381 391 2643 752 
Q 2906 1113 2906 1747 
Q 2906 2381 2643 2742 
Q 2381 3103 1925 3103 
Q 1469 3103 1208 2742 
Q 947 2381 947 1747 
z
" id="DejaVuSans-64" transform="scale(0.015625)"/>
      <path d="M 3513 2113 
L 3513 0 
L 2938 0 
L 2938 2094 
Q 2938 2591 2744 2837 
Q 2550 3084 2163 3084 
Q 1697 3084 1428 2787 
Q 1159 2491 1159 1978 
L 1159 0 
L 581 0 
L 581 3500 
L 1159 3500 
L 1159 2956 
Q 1366 3272 1645 3428 
Q 1925 3584 2291 3584 
Q 2894 3584 3203 3211 
Q 3513 2838 3513 2113 
z
" id="DejaVuSans-6e" transform="scale(0.015625)"/>
      <path d="M 3263 -1063 
L 3263 -1509 
L -63 -1509 
L -63 -1063 
L 3263 -1063 
z
" id="DejaVuSans-5f" transform="scale(0.015625)"/>
      <path d="M 1959 3097 
Q 1497 3097 1228 2736 
Q 959 2375 959 1747 
Q 959 1119 1226 758 
Q 1494 397 1959 397 
Q 2419 397 2687 759 
Q 2956 1122 2956 1747 
Q 2956 2369 2687 2733 
Q 2419 3097 1959 3097 
z
M 1959 3584 
Q 2709 3584 3137 3096 
Q 3566 2609 3566 1747 
Q 3566 888 3137 398 
Q 2709 -91 1959 -91 
Q 1206 -91 779 398 
Q 353 888 353 1747 
Q 353 2609 779 3096 
Q 1206 3584 1959 3584 
z
" id="DejaVuSans-6f" transform="scale(0.015625)"/>
      <path d="M 1159 525 
L 1159 -1331 
L 581 -1331 
L 581 3500 
L 1159 3500 
L 1159 2969 
Q 1341 3281 1617 3432 
Q 1894 3584 2278 3584 
Q 2916 3584 3314 3078 
Q 3713 2572 3713 1747 
Q 3713 922 3314 415 
Q 2916 -91 2278 -91 
Q 1894 -91 1617 61 
Q 1341 213 1159 525 
z
M 3116 1747 
Q 3116 2381 2855 2742 
Q 2594 3103 2138 3103 
Q 1681 3103 1420 2742 
Q 1159 2381 1159 1747 
Q 1159 1113 1420 752 
Q 1681 391 2138 391 
Q 2594 391 2855 752 
Q 3116 1113 3116 1747 
z
" id="DejaVuSans-70" transform="scale(0.015625)"/>
     </defs>
     <use xlink:href="#DejaVuSans-72"/>
     <use x="38.863281" xlink:href="#DejaVuSans-65"/>
     <use x="100.386719" xlink:href="#DejaVuSans-61"/>
     <use x="161.666016" xlink:href="#DejaVuSans-64"/>
     <use x="225.142578" xlink:href="#DejaVuSans-69"/>
     <use x="252.925781" xlink:href="#DejaVuSans-6e"/>
     <use x="316.304688" xlink:href="#DejaVuSans-67"/>
     <use x="379.78125" xlink:href="#DejaVuSans-5f"/>
     <use x="429.78125" xlink:href="#DejaVuSans-63"/>
     <use x="484.761719" xlink:href="#DejaVuSans-6f"/>
     <use x="545.943359" xlink:href="#DejaVuSans-6d"/>
     <use x="643.355469" xlink:href="#DejaVuSans-70"/>
     <use x="706.832031" xlink:href="#DejaVuSans-72"/>
     <use x="745.695312" xlink:href="#DejaVuSans-65"/>
     <use x="807.21875" xlink:href="#DejaVuSans-68"/>
     <use x="870.597656" xlink:href="#DejaVuSans-65"/>
     <use x="932.121094" xlink:href="#DejaVuSans-6e"/>
     <use x="995.5" xlink:href="#DejaVuSans-73"/>
     <use x="1047.599609" xlink:href="#DejaVuSans-69"/>
     <use x="1075.382812" xlink:href="#DejaVuSans-6f"/>
     <use x="1136.564453" xlink:href="#DejaVuSans-6e"/>
    </g>
   </g>
   <g id="text_17">
    <!-- math_proficiency -->
    <g transform="translate(191.401728 239.758135)scale(0.1 -0.1)">
     <defs>
      <path d="M 2375 4863 
L 2375 4384 
L 1825 4384 
Q 1516 4384 1395 4259 
Q 1275 4134 1275 3809 
L 1275 3500 
L 2222 3500 
L 2222 3053 
L 1275 3053 
L 1275 0 
L 697 0 
L 697 3053 
L 147 3053 
L 147 3500 
L 697 3500 
L 697 3744 
Q 697 4328 969 4595 
Q 1241 4863 1831 4863 
L 2375 4863 
z
" id="DejaVuSans-66" transform="scale(0.015625)"/>
      <path d="M 2059 -325 
Q 1816 -950 1584 -1140 
Q 1353 -1331 966 -1331 
L 506 -1331 
L 506 -850 
L 844 -850 
Q 1081 -850 1212 -737 
Q 1344 -625 1503 -206 
L 1606 56 
L 191 3500 
L 800 3500 
L 1894 763 
L 2988 3500 
L 3597 3500 
L 2059 -325 
z
" id="DejaVuSans-79" transform="scale(0.015625)"/>
     </defs>
     <use xlink:href="#DejaVuSans-6d"/>
     <use x="97.412109" xlink:href="#DejaVuSans-61"/>
     <use x="158.691406" xlink:href="#DejaVuSans-74"/>
     <use x="197.900391" xlink:href="#DejaVuSans-68"/>
     <use x="261.279297" xlink:href="#DejaVuSans-5f"/>
     <use x="311.279297" xlink:href="#DejaVuSans-70"/>
     <use x="374.755859" xlink:href="#DejaVuSans-72"/>
     <use x="413.619141" xlink:href="#DejaVuSans-6f"/>
     <use x="474.800781" xlink:href="#DejaVuSans-66"/>
     <use x="510.005859" xlink:href="#DejaVuSans-69"/>
     <use x="537.789062" xlink:href="#DejaVuSans-63"/>
     <use x="592.769531" xlink:href="#DejaVuSans-69"/>
     <use x="620.552734" xlink:href="#DejaVuSans-65"/>
     <use x="682.076172" xlink:href="#DejaVuSans-6e"/>
     <use x="745.455078" xlink:href="#DejaVuSans-63"/>
     <use x="800.435547" xlink:href="#DejaVuSans-79"/>
    </g>
   </g>
   <g id="text_18">
    <!-- Algebra_II -->
    <g transform="translate(252.834365 172.771756)scale(0.1 -0.1)">
     <defs>
      <path d="M 2188 4044 
L 1331 1722 
L 3047 1722 
L 2188 4044 
z
M 1831 4666 
L 2547 4666 
L 4325 0 
L 3669 0 
L 3244 1197 
L 1141 1197 
L 716 0 
L 50 0 
L 1831 4666 
z
" id="DejaVuSans-41" transform="scale(0.015625)"/>
      <path d="M 628 4666 
L 1259 4666 
L 1259 0 
L 628 0 
L 628 4666 
z
" id="DejaVuSans-49" transform="scale(0.015625)"/>
     </defs>
     <use xlink:href="#DejaVuSans-41"/>
     <use x="68.408203" xlink:href="#DejaVuSans-6c"/>
     <use x="96.191406" xlink:href="#DejaVuSans-67"/>
     <use x="159.667969" xlink:href="#DejaVuSans-65"/>
     <use x="221.191406" xlink:href="#DejaVuSans-62"/>
     <use x="284.667969" xlink:href="#DejaVuSans-72"/>
     <use x="325.78125" xlink:href="#DejaVuSans-61"/>
     <use x="387.060547" xlink:href="#DejaVuSans-5f"/>
     <use x="437.060547" xlink:href="#DejaVuSans-49"/>
     <use x="466.552734" xlink:href="#DejaVuSans-49"/>
    </g>
   </g>
   <g id="text_19">
    <!-- remedial_math -->
    <g transform="translate(41.667171 111.614923)scale(0.1 -0.1)">
     <use xlink:href="#DejaVuSans-72"/>
     <use x="38.863281" xlink:href="#DejaVuSans-65"/>
     <use x="100.386719" xlink:href="#DejaVuSans-6d"/>
     <use x="197.798828" xlink:href="#DejaVuSans-65"/>
     <use x="259.322266" xlink:href="#DejaVuSans-64"/>
     <use x="322.798828" xlink:href="#DejaVuSans-69"/>
     <use x="350.582031" xlink:href="#DejaVuSans-61"/>
     <use x="411.861328" xlink:href="#DejaVuSans-6c"/>
     <use x="439.644531" xlink:href="#DejaVuSans-5f"/>
     <use x="489.644531" xlink:href="#DejaVuSans-6d"/>
     <use x="587.056641" xlink:href="#DejaVuSans-61"/>
     <use x="648.335938" xlink:href="#DejaVuSans-74"/>
     <use x="687.544922" xlink:href="#DejaVuSans-68"/>
    </g>
   </g>
   <g id="text_20">
    <!-- standardized_tests -->
    <g transform="translate(373.461911 71.029966)scale(0.1 -0.1)">
     <defs>
      <path d="M 353 3500 
L 3084 3500 
L 3084 2975 
L 922 459 
L 3084 459 
L 3084 0 
L 275 0 
L 275 525 
L 2438 3041 
L 353 3041 
L 353 3500 
z
" id="DejaVuSans-7a" transform="scale(0.015625)"/>
     </defs>
     <use xlink:href="#DejaVuSans-73"/>
     <use x="52.099609" xlink:href="#DejaVuSans-74"/>
     <use x="91.308594" xlink:href="#DejaVuSans-61"/>
     <use x="152.587891" xlink:href="#DejaVuSans-6e"/>
     <use x="215.966797" xlink:href="#DejaVuSans-64"/>
     <use x="279.443359" xlink:href="#DejaVuSans-61"/>
     <use x="340.722656" xlink:href="#DejaVuSans-72"/>
     <use x="380.085938" xlink:href="#DejaVuSans-64"/>
     <use x="443.5625" xlink:href="#DejaVuSans-69"/>
     <use x="471.345703" xlink:href="#DejaVuSans-7a"/>
     <use x="523.835938" xlink:href="#DejaVuSans-65"/>
     <use x="585.359375" xlink:href="#DejaVuSans-64"/>
     <use x="648.835938" xlink:href="#DejaVuSans-5f"/>
     <use x="698.835938" xlink:href="#DejaVuSans-74"/>
     <use x="738.044922" xlink:href="#DejaVuSans-65"/>
     <use x="799.568359" xlink:href="#DejaVuSans-73"/>
     <use x="851.667969" xlink:href="#DejaVuSans-74"/>
     <use x="890.876953" xlink:href="#DejaVuSans-73"/>
    </g>
   </g>
   <g id="text_21">
    <!-- calculus_trigonometry -->
    <g transform="translate(376.467171 151.893102)scale(0.1 -0.1)">
     <defs>
      <path d="M 544 1381 
L 544 3500 
L 1119 3500 
L 1119 1403 
Q 1119 906 1312 657 
Q 1506 409 1894 409 
Q 2359 409 2629 706 
Q 2900 1003 2900 1516 
L 2900 3500 
L 3475 3500 
L 3475 0 
L 2900 0 
L 2900 538 
Q 2691 219 2414 64 
Q 2138 -91 1772 -91 
Q 1169 -91 856 284 
Q 544 659 544 1381 
z
M 1991 3584 
L 1991 3584 
z
" id="DejaVuSans-75" transform="scale(0.015625)"/>
     </defs>
     <use xlink:href="#DejaVuSans-63"/>
     <use x="54.980469" xlink:href="#DejaVuSans-61"/>
     <use x="116.259766" xlink:href="#DejaVuSans-6c"/>
     <use x="144.042969" xlink:href="#DejaVuSans-63"/>
     <use x="199.023438" xlink:href="#DejaVuSans-75"/>
     <use x="262.402344" xlink:href="#DejaVuSans-6c"/>
     <use x="290.185547" xlink:href="#DejaVuSans-75"/>
     <use x="353.564453" xlink:href="#DejaVuSans-73"/>
     <use x="405.664062" xlink:href="#DejaVuSans-5f"/>
     <use x="455.664062" xlink:href="#DejaVuSans-74"/>
     <use x="494.873047" xlink:href="#DejaVuSans-72"/>
     <use x="535.986328" xlink:href="#DejaVuSans-69"/>
     <use x="563.769531" xlink:href="#DejaVuSans-67"/>
     <use x="627.246094" xlink:href="#DejaVuSans-6f"/>
     <use x="688.427734" xlink:href="#DejaVuSans-6e"/>
     <use x="751.806641" xlink:href="#DejaVuSans-6f"/>
     <use x="812.988281" xlink:href="#DejaVuSans-6d"/>
     <use x="910.400391" xlink:href="#DejaVuSans-65"/>
     <use x="971.923828" xlink:href="#DejaVuSans-74"/>
     <use x="1011.132812" xlink:href="#DejaVuSans-72"/>
     <use x="1052.246094" xlink:href="#DejaVuSans-79"/>
    </g>
   </g>
   <g id="text_22">
    <!-- Words closest to: math -->
    <g transform="translate(140.145938 16.318125)scale(0.12 -0.12)">
     <defs>
      <path d="M 213 4666 
L 850 4666 
L 1831 722 
L 2809 4666 
L 3519 4666 
L 4500 722 
L 5478 4666 
L 6119 4666 
L 4947 0 
L 4153 0 
L 3169 4050 
L 2175 0 
L 1381 0 
L 213 4666 
z
" id="DejaVuSans-57" transform="scale(0.015625)"/>
      <path id="DejaVuSans-20" transform="scale(0.015625)"/>
      <path d="M 750 794 
L 1409 794 
L 1409 0 
L 750 0 
L 750 794 
z
M 750 3309 
L 1409 3309 
L 1409 2516 
L 750 2516 
L 750 3309 
z
" id="DejaVuSans-3a" transform="scale(0.015625)"/>
     </defs>
     <use xlink:href="#DejaVuSans-57"/>
     <use x="93.001953" xlink:href="#DejaVuSans-6f"/>
     <use x="154.183594" xlink:href="#DejaVuSans-72"/>
     <use x="193.546875" xlink:href="#DejaVuSans-64"/>
     <use x="257.023438" xlink:href="#DejaVuSans-73"/>
     <use x="309.123047" xlink:href="#DejaVuSans-20"/>
     <use x="340.910156" xlink:href="#DejaVuSans-63"/>
     <use x="395.890625" xlink:href="#DejaVuSans-6c"/>
     <use x="423.673828" xlink:href="#DejaVuSans-6f"/>
     <use x="484.855469" xlink:href="#DejaVuSans-73"/>
     <use x="536.955078" xlink:href="#DejaVuSans-65"/>
     <use x="598.478516" xlink:href="#DejaVuSans-73"/>
     <use x="650.578125" xlink:href="#DejaVuSans-74"/>
     <use x="689.787109" xlink:href="#DejaVuSans-20"/>
     <use x="721.574219" xlink:href="#DejaVuSans-74"/>
     <use x="760.783203" xlink:href="#DejaVuSans-6f"/>
     <use x="821.964844" xlink:href="#DejaVuSans-3a"/>
     <use x="855.65625" xlink:href="#DejaVuSans-20"/>
     <use x="887.443359" xlink:href="#DejaVuSans-6d"/>
     <use x="984.855469" xlink:href="#DejaVuSans-61"/>
     <use x="1046.134766" xlink:href="#DejaVuSans-74"/>
     <use x="1085.34375" xlink:href="#DejaVuSans-68"/>
    </g>
   </g>
  </g>
 </g>
 <defs>
  <clipPath id="pea0dd4ec2e">
   <rect height="217.44" width="334.8" x="41.667188" y="22.318125"/>
  </clipPath>
 </defs>
</svg>
